/* XPM */
static char *aea95_1bmp7[] = {
/* columns rows colors chars-per-pixel */
"64 64 162 2 ",
"   c #DEAC57",
".  c #DDAE5B",
"X  c #E3AD4E",
"o  c #E4AE52",
"O  c #E5B155",
"+  c #E8B356",
"@  c #E6B45B",
"#  c #E8B55D",
"$  c #E7B85F",
"%  c #E8B95F",
"&  c #DFB464",
"*  c #E6B661",
"=  c #E8B661",
"-  c #E7B963",
";  c #E9BA64",
":  c #E7BB6A",
">  c #E9BD6B",
",  c #E5BD74",
"<  c #EABF71",
"1  c #E3BC78",
"2  c #EAC06E",
"3  c #E6C176",
"4  c #EBC274",
"5  c #ECC57C",
"6  c #ECC87E",
"7  c #F0C67F",
"8  c #F0C87F",
"9  c #DFBE82",
"0  c #DEC185",
"q  c #E3C384",
"w  c #EDC782",
"e  c #EEC984",
"r  c #E7C78B",
"t  c #E8C78A",
"y  c #EECC8C",
"u  c #F0C780",
"i  c #F0C985",
"p  c #F0CC8D",
"a  c #E3C690",
"s  c #E6C992",
"d  c #EECE92",
"f  c #E5CC9C",
"g  c #ECCE9A",
"h  c #F0CE92",
"j  c #F1CF98",
"k  c #EFD097",
"l  c #EED095",
"z  c #EFD095",
"x  c #EFD299",
"c  c #EFD19A",
"v  c #EFD29A",
"b  c #EFD39B",
"n  c #EDD39C",
"m  c #EED29C",
"M  c #EFD29A",
"N  c #F0D192",
"B  c #F0D093",
"V  c #F0D195",
"C  c #F1D195",
"Z  c #F0D094",
"A  c #F2D194",
"S  c #F0D196",
"D  c #F0D197",
"F  c #F1D197",
"G  c #F1D195",
"H  c #F1D199",
"J  c #F1D298",
"K  c #F2D299",
"L  c #F1D19B",
"P  c #F2D19A",
"I  c #F0D39B",
"U  c #F2D29A",
"Y  c #F1D39C",
"T  c #F1D39D",
"R  c #F0D29E",
"E  c #F0D39F",
"W  c #F2D29E",
"Q  c #F0D49D",
"!  c #F1D49D",
"~  c #F2D49E",
"^  c #F2D49F",
"/  c #F1D69F",
"(  c #F2D69E",
")  c #F2D69F",
"_  c #F1D39C",
"`  c #DFC7A0",
"'  c #E8CFA3",
"]  c #EFD5A3",
"[  c #EDD4A4",
"{  c #EDD5AA",
"}  c #EFDBAE",
"|  c #EFD9AB",
" . c #F1D5A0",
".. c #F1D5A1",
"X. c #F2D6A0",
"o. c #F3D4A2",
"O. c #F1D7A2",
"+. c #F0D6A3",
"@. c #F3D7A2",
"#. c #F2D7A3",
"$. c #F0D4A3",
"%. c #F4D6A2",
"&. c #F3D6A4",
"*. c #F3D7A5",
"=. c #F2D7A4",
"-. c #F0D7A6",
";. c #F1D6A7",
":. c #F0D5A4",
">. c #F4D6A5",
",. c #F2D6A3",
"<. c #F1D8A4",
"1. c #F1D9A6",
"2. c #F5D8A7",
"3. c #F2D8A6",
"4. c #F2D7AA",
"5. c #F2D7A8",
"6. c #F3DBA9",
"7. c #F0D9AA",
"8. c #F2D9AB",
"9. c #F4D9A8",
"0. c #F4D9AA",
"q. c #F5D9AA",
"w. c #F2DBAC",
"e. c #F0DBAF",
"r. c #F3DBAF",
"t. c #F4DBAD",
"y. c #F4DAAF",
"u. c #F4DBAF",
"i. c #F3DCAD",
"p. c #F3DDAF",
"a. c #F5DCAC",
"s. c #F3DAAB",
"d. c #E9D4B1",
"f. c #EDD9B4",
"g. c #E7D7BB",
"h. c #EBDAB8",
"j. c #F4DBB2",
"k. c #F4DDB1",
"l. c #F5DCB0",
"z. c #F6DDB0",
"x. c #F5DDB3",
"c. c #F4DEB2",
"v. c #F4DFB4",
"b. c #F5DFB6",
"n. c #F5DEB7",
"m. c #F4DDB3",
"M. c #F8DEB5",
"N. c #F5DFB9",
"B. c #F6E0B6",
"V. c #F5E0B6",
"C. c #F7E0B9",
"Z. c #F6E2BA",
"A. c #F7E2BD",
"S. c #F6E3BD",
"D. c #F7E3BF",
"F. c #F6E4BE",
"G. c #F6E2BB",
"H. c #F8E2BC",
"J. c #F6E4C0",
"K. c #F7E4C0",
"L. c #F6E4C0",
"P. c #F8E4C1",
/* pixels */
"g g g d d d d d d d d d d r d g d d d d g d d d g g y y t 5 : : * * @ * , 5 t y e y s z x ] 8.p.} 8. . .d d d d d g d d g d d g ",
"d y y d h V d g d d V V d y V z V V d c y y h y y y d l y y w 5 > > - O @ O @ # % > : > 2 4 u i z  .>.4. .U h d d d h h y d y g ",
"d h d k h d d k c d m L c L L )  .j.j.t.8. . .c y N y y y y p p y e w 5 2 : : : 2 2 : : : 2 : > 4 5 e h >.>.%.h h c y y z y y g ",
"d L m 1.1.q.j.r.k.p.k.x.V.b.V.V.x.1. ._ k c ) ) ) x z l y d V d d d h d y y N y y e e 6 5 5 5 5 4 5 5 4 e p _ %._ c z p y g d l ",
"| Z.A.A.J.J.A.A.C.N.b.x.i.8. .k e 5 4 4 4 5 w e k L L V V h y d z y c ] 8.6.p.p.8.-. .c h p p e p e 6 5 5 6 e d ) ) L h d B K  .",
"G.p.-.y y 5 5 1 4 5 < > ; ; ; * # % ; > 2 4 5 w 6 w y h V h h ) O.x.S.V.V.p.1.8.x.k.k.p.2.4._ V V h p p p i e 6 y p B V _  .8.Z.",
"t > - O X X o X o X o o X O @ # = > : 2 5 4 6 w 6 6 e p h L 8.V.Z.a.c y 5 5 4 4 5 y V _ >.q.4.>.-. .L V h h y y p i K %.a.V.S.1.",
"@ O O o o o o o o o o O # ; = : 4 4 5 6 w e e e w y N V >.x.S.1.y 2 @ @ O @ $ - # = 2 4 w p h V  . .-._ _ _ ) L x  .6.x.C.V.V > ",
"@ @ # # # % = = @ = = > > 2 2 5 w w y y p p p h V ) / x.C.z.p : O X o @ = * : : > : > > 2 4 6 6 i h B L _ ) ) >.p.j.V.V._ u % = ",
"* > > > > > : < 4 < 5 5 5 6 e e p h V V j _  .>.8.V.H.Z.K 4 % + # = ; > > 2 4 7 5 7 6 7 5 6 5 6 7 w i p L L -.p.V.6.%.w : = = > ",
"1 < < 5 u 6 6 6 6 i e i p p h h h V _  .-.-.8.t.C.V. .5 # + - : 4 5 i e p p h h h B h V B V B z L V U W >.2.2. .d 5 ; # - ; ; < ",
"5 6 w i i p y y p h d L h K _ _ ) ) ) q.r.r.M.>.B 4 ; # = 5 5 e i p h V V L _ _ _ O. .%. .O.1.1.O.%.>. .) d u 4 > = > = > < < 5 ",
"y y p p y y p h V _ _ _ _ ) )  .-.-.q.8.<.K t 4 : > 4 6 y p y y p p y y y y d d N B h p d d k y y e w 6 4 4 > > > > 2 4 < 5 7 y ",
"d d d d y z V ) %.>.j.a.t.r.r.5. .) d w 5 4 4 w p y p p y z y y z y y p y e e w w w e u w w 5 5 5 4 4 4 5 4 4 4 u 5 6 i i y y y ",
"g h d h B _ q.a.Z.H.C.C.n.k.1.%.V y y y y p y z y y y y p d z y y y y p y d p d y p e e e e w e w e e w w w w e y e p e y p y r ",
"k L ) -.r.b.A.F.Z.b.x.j.f.N.N.j.r.r.{ ] c z z y y d d h d y V d y h y h h y y h h y y d g d d s l y y g d y B z h p V L V B A c ",
"] p.b.Z.F.S.i.k w 4 4 9 0 a ' f.h.g.d.{ ' m c z h h d d d z y z d y d d h y p h d d d d ` f f f f f f ' { ' %.%. .>.-.4.-.q.2.8.",
"n.D.A.b.O.y > # O X O X o O * 4 d 5.k.b.r.8.1.) _ L _ c V B z y V V z y V d d _ L L ) ) m ) -.8.k.f.V.Z.n.N.C.H.H.C.A.n.H.C.Z.G.",
"1. .y 5 ; @ O @ @ @ @ # @ O . O = 4 d a.M.a.r.5.-.o.%.) ) c c k V L L L _ W W _  .-. .1.a.k.n.H.C.b.} i.8.q.q.>.t.t.q.4.t.r.i.1.",
"> ; # O o @ % = > < < < > : : $ o O # < B r.b.k.t.>.>. . .) ) _ _ _ _ _ >.%.>.-.1.q.r.b.Z.V.t.U p 6 4 : ; > ; ; > : > : : > > > ",
"@ + + @ * : 4 5 e p i y e e w 4 > - @ O # 5 L r.t.r.q.5.-.>.>.%.%.>. .q.2.q.q.r.p.x.x.a.V e < # O O O O o o o o X X X O o o O @ ",
"- = : 4 5 w p p p h d y h h p e w 4 > ; O # > w %.z.x.t.t.1.5.-.O.1.5.t.6.q.t.t.1.) y 4 = o O o = 2 4 u w 5 w 5 2 > : - $ = # - ",
"5 4 w p p B d p d d d d d d h d d r w 4 > = @ @ 2 i _ q.t.t.a.p.q.t.j.j.6.6./ p 5 : @ O # = < e p B B L h h g d N y y 6 5 3 5 5 ",
"y y d d y y z h y y d d y p h h h h p y w < : @ # % 4 w d ) 1.1.t.t.>.-.V e 4 > % = > 2 i h K V B B h p h h h d y N y z y y y y ",
"d k d d d d d d d h h j d d y d h p y p p y 6 > > ; = - ; 2 7 6 6 6 4 5 2 2 2 2 5 y V ) O.%. . .>. . . . ._ _ L k z L V h V h g ",
"n  .m ) m c _ m _ j _ _ _ L d d h p p d d y y i 4 > > > # # % # # # % = > 2 4 7 d ) 1.2.8.1.r.j.8.r.x.x.j.t.r.q.i.] 1.-.>. .>.-.",
"k.x.b.x.b.b.j.j.k.x.j.r.t.q.8.4.-._ _ g h d y y N w 5 2 > % # # # @ # = = 2 5 7 u p p y B k m ) 1.1.q.a.j.M.b.b.V.b.b.n.b.b.b.b.",
"S.D.Z.S.L.L.L.L.A.L.A.H.H.n.Z.n.b.x.t.5. .) L y p p y e 7 5 5 4 2 5 2 2 6 6 6 7 6 4 5 5 4 5 6 5 w u i y d L _ ) 1.t.k.k.N.V.Z.N.",
"d y y y d y h h d V d c V )  .-.4.2.q.a.x.8.1.) ) V h p h p y p p i e p e e u e 6 6 5 5 4 4 < > : : > = ; : > < 4 5 6 w w t y y ",
"* @ @ @ @ O @ + @ # @ # ; ; > < 4 6 u h L 1.1.p.1.2. .L L d j h h p p p p e p p y i i w w w w 5 5 4 2 > > : = % # # @ # O @ * @ ",
"@ O @ + o o o o o o @ @ @ @ @ # * ; : : 4 w y c -.8.1.-. ._  ._ V V B V V V B z h d y y h p e y y w w w w 6 5 2 < > = : - @ # * ",
", > : > > > : : - ; ; = ; > > ; ; : > 2 2 < 4 w e h h  .) )  . .) _ W _ L V _ B V V B h y d y p p z ) )  . . .L L d y w 5 4 < 1 ",
"y y e e e w w 6 6 5 6 6 4 5 5 5 5 5 5 5 < 5 5 5 5 5 6 y y p B c k c L d h V V h y y N d z k <.p.V.V.V.k.G.b.b.V.V.k.a.1._ N i h ",
"d d d y d y p y y p p p p N p e i u w i w 5 5 6 6 6 5 w w w w e y y p p y p p y B K ] a.a.1.x y 5 5 4 : : > 3 5 e k %.q.V.p.>._ ",
"{  .d L h h y z y h B B N B V B p B h h p i e e w u i e e e e y y h p V L _ q.8.6.6.V y 4 ; @ O @ @ @ @ $ @ # = = - : 4 e m p.8.",
"1.q.8. ._ V h h h y p y d p y h B _ %._ W o._ ) )  ._ _ _  .O.2.-.4.r.r.a.i.) p 5 : + + O O : 2 4 6 e w e w 5 4 > : - - ; 2 w c ",
"y k  .-.q. .L V V d p p p y y e i y y y y p V L L L ) )  .q.2.%.) / K p 5 > ; @ O O # ; 2 5 w y z y p y y d y p w w 4 4 4 > : 3 ",
": 4 w d V ) 2. .%._ _ L h K h h N p p e e e w w w 6 5 5 4 4 4 : 2 ; : = % # = = > 2 5 e p h B y y y y p y y p p p p p t w 5 4 5 ",
"5 5 6 5 w y z K O.O.%.%.%. .O.%.) _ / _ V L h p p h e y 6 u 5 5 4 4 4 2 2 4 4 4 w p y y y p p h d d h h h p h y B p z y y y e t ",
"d h h y y p y K  .O.%.q.t.a.a.x.k.V.p.2.q.5.-. ._ d h d B B y p p p e p u i y d p B p h h d z p B B B B V V k V V V k k ) _ V V ",
"8.-.8.1.O.8.2.1.p.k.x.n.Z.A.S.D.J.J.F.F.A.Z.k.k.t.5.-. .)  .x m _ O.x  . .) m c c _ _ _ L L L V B B V V L L V V ) _ L  .)  .>.8.",
"b.x.V.C.V.A.S.F.F.C.H.V.a.-.x K x ) ( i.V.F.L.A.P.H.C.Z.Z.n.b.V.a.x.k.k.a.a.p.t.8.-.q.2.-.%.%.L ) L L L _ _ _ L ) -.>.2.q.1.i.f.",
"S.D.A.J.C.x.a.2.x y 4 ; # @ X O O O O $ 4 e d -.a.b.V.Z.A.P.J.A.S.Z.Z.V.V.V.V.z.8.8.5.8. .%. .h K V h V p B z d V )  .p.x.x.V.n.",
"[  .k y 6 4 : # O o X X O + + O O X + @ O o @ ; 5 p V x  .q.t.8.i.8.8.8.1.O./ J _ L h h y y d p y y e y e e e e w e t y h V L -.",
"- = # o O X X O O + # # # ; 2 2 2 ; = = @ O X O + @ > 5 5 6 p e y y i p w 6 5 5 6 6 7 4 4 4 6 5 w w e e w e y 6 6 4 4 5 > > ; > ",
"o o o O O % - = ; : > 2 5 5 6 w 6 e 6 4 4 2 ; % + o X X X @ : + > ; % ; > % 2 % = = > > < 4 6 w 6 e y p y e y t y w 4 < > ; # @ ",
"* - ; > > > 4 4 5 6 u u i N z p V K z L N p e 5 4 : $ + X X X X X + + + # + % % > 2 4 4 7 7 e y y y N k K A _ d y e w w 4 > > : ",
"4 5 6 w i y y e y d B A K A B B _ _ ) ) _ ( _ x k N e 6 4 > > = % > 2 2 6 6 e e i B B U K U  .4.p.V.V.V.C.C.C.V.a.5._ d e w w 3 ",
"d h y y y h B y y d y g f g s s s f f g [ m %.>.%.%.L K V y y y w w p B / %.1.i.7.i.p.k.g.f.h.f.{ n a q 1 1 5 y c 1.k.8.) L N r ",
"d d y z d z y y y p p a r a r t r r t s s k ) -.4.4. .) ) L h V B p e e p y B c x k x l a q 1 : & . . .   o O O - > N 6.8. .L c ",
"c y y y d d B B h y y N p y p e e w e 6 w e e p c  .q.8.O.1.) V _ z z y e y w 5 5 4 2 4 > : ; : : ; ; : ; - > ; $ - = 4 k O.) _ ",
"_ L V V y d d y y y d y p y p p p y e w w w 6 6 w y _ 1.p.q.1.-. .K k z B z k d y z y y N z d y y y e e p 4 e 6 4 4 4 2 4 y ) 5.",
"_ -._ L p B p p p p N y d h j L V V h y y e w w 4 5 t y _ q.r.p.a.1. ._ L d V y y N y z d d d p V h d z d p h d p p i 5 4 4 e l ",
"y h _ W L B B B V V N V m >.8.1.8.8.1.L d y y e 5 6 4 4 6 y ) 8.b.k.x.r.1.) ) _ k c _ x L c L _  ._ _ m ] O. . . .) ) ) z e e t ",
"d p h V V L L A V ) %.%.V N p y k m i.a.j.-.x V y w 6 4 > 4 5 y _ 6.k.b.k.r.r.t.1.8.8.8.t.r.t.t.a.a.x.b.V.b.n.n.n.n.b.V.x.i.( k ",
"4.-.j h y V _ _ L j p u 6 4 5 4 4 5 5 d q.C.x.8._ d e e 5 4 > : 4 t k r.V.n.b.V.b.G.V.Z.N.P.N.N.P.P.P.H.Z.V.b.x.j.t.1.1.1.i.p.} ",
"] 1.i.<./ _ B y y e e w 6 5 4 < : = ; ; 2 p 1.Z.x.-.V p y y 5 > 2 $ 2 6 p  .j.b.j.N.A.A.Z.V.b.t.1.O.V N w 5 4 < > < < 4 < 5 y c ",
"3 w z ( O.%.) L V d p i i u 5 7 4 2 : ; ; # : h b.A.t.) j d p e 5 > : - * > 4 5 5 5 w 5 3 < > ; @ @ O O o o @ = # * ; ; ; ; ; < ",
"> > 4 4 i k ) ) _ L V V V h p i i 6 4 : : # O # 5  .C.S.5.m h p d y e 5 < : = # @ # = * @ @ @ * ; > : 4 5 4 5 w e w 6 e 6 4 4 5 ",
"y 6 6 4 5 6 w e p V U W _ _ B B N y i w 4 > % O @ # t V.F.b.-.L k y y y y y y w 5 e y u y y e p p y p y d y h y p d y y p y y r ",
"s d y e t w 7 6 w i y y p B p B d h p y e 5 > ; @ o o >  .N.A.j.-._ h d y y y y y h h d d h y y y h d y y y h d z y p d d d d y ",
"y d k d h y p e e w w w e e i p h d y y y e 7 < > * @ X o 5 q.A.C.b.8. ._ c h d y d d d d y d d y d h y y d d d y y p d d y d d ",
"g y y y y d k y p z z y N y p p p y y d p p p i 5 < : = o X @ 5 1.C.Z.Z.j.r.-.%.] _ L _ d B V d p d p y d d d h h h y d h r d d ",
"c d d d d d d d d d d s d d d d d t d d d d g d y y 5 < : @ @ o - 5 g r.b.N.N.b.k.k.p.| r.5.{ 5.h d d d d d d r d d d d d d d g "
};
