/* XPM */
static char *n87ty_zv94r[] = {
/* columns rows colors chars-per-pixel */
"64 64 189 2 ",
"OX c None",
"   c #010101",
".  c #0A0806",
"X  c #0C0B0A",
"o  c #080705",
"O  c #130908",
"+  c #16110E",
"@  c #131312",
"#  c #1C1C1C",
"$  c #220303",
"%  c #211813",
"&  c #23211F",
"*  c #322219",
"=  c #39271D",
"-  c #242424",
";  c #2B2B2B",
":  c #292826",
">  c #332D28",
",  c #343433",
"<  c #3C3634",
"1  c #3C3C3C",
"2  c #3D3737",
"3  c #393128",
"4  c #481818",
"5  c #680000",
"6  c #442323",
"7  c #42392F",
"8  c #4C382D",
"9  c #4B3326",
"0  c #553B2C",
"q  c #403E3D",
"w  c #483E33",
"e  c #563E31",
"r  c #73372D",
"t  c #5F402F",
"y  c #4A4034",
"u  c #574639",
"i  c #634432",
"p  c #6D4B37",
"a  c #6F4C38",
"s  c #724F3A",
"d  c #75513B",
"f  c #7A543E",
"g  c #434343",
"h  c #4A4B4A",
"j  c #4D4446",
"k  c #504E4E",
"l  c #4F5152",
"z  c #545454",
"x  c #5D5D5D",
"c  c #595757",
"v  c #6C5D4C",
"b  c #7F5740",
"n  c #7E5A44",
"m  c #725E4D",
"M  c #6C5454",
"N  c #665B5C",
"B  c #635C54",
"V  c #726250",
"C  c #7D6C59",
"Z  c #7D715A",
"A  c #5F6060",
"S  c #616161",
"D  c #6C6C6C",
"F  c #6B6966",
"G  c #960000",
"H  c #BC0E0E",
"J  c #BD1515",
"K  c #BF211F",
"L  c #B33C18",
"P  c #892A29",
"I  c #9B3131",
"U  c #AB2323",
"Y  c #B73B30",
"T  c #A9342A",
"R  c #D90604",
"E  c #DD1402",
"W  c #D81816",
"Q  c #D9231D",
"!  c #E43307",
"~  c #C32B29",
"^  c #DF2E28",
"/  c #DE322A",
"(  c #E12929",
")  c #8A711C",
"_  c #93781D",
"`  c #BE4224",
"'  c #E77322",
"]  c #845A42",
"[  c #8A5F45",
"{  c #8E6248",
"}  c #8C6046",
"|  c #93654A",
" . c #9A6A4E",
".. c #92684E",
"X. c #9B6E56",
"o. c #86735F",
"O. c #896A54",
"+. c #A16E51",
"@. c #AB7556",
"#. c #A77153",
"$. c #B37A5A",
"%. c #8A7864",
"&. c #9A7B68",
"*. c #E5574D",
"=. c #EF735F",
"-. c #EE6B58",
";. c #E66C69",
":. c #B59324",
">. c #A98A22",
",. c #F1891F",
"<. c #C19D27",
"1. c #DD9332",
"2. c #E8862E",
"3. c #CAA428",
"4. c #DDB42C",
"5. c #D8B336",
"6. c #E6BA2E",
"7. c #E9BE33",
"8. c #E7BC30",
"9. c #EAC036",
"0. c #EDC43B",
"q. c #FFD234",
"w. c #AC975B",
"e. c #98826A",
"r. c #8C8278",
"t. c #92877B",
"y. c #BD9B7D",
"u. c #A99278",
"i. c #B0A37F",
"p. c #E6B944",
"a. c #D9876F",
"s. c #EFC840",
"d. c #F4CE47",
"f. c #F6D14C",
"g. c #F9D652",
"h. c #8C8986",
"j. c #968F87",
"k. c #98928A",
"l. c #9B9C9B",
"z. c #939393",
"x. c #A49A8E",
"c. c #AA9A89",
"v. c #BBA185",
"b. c #BCA588",
"n. c #B7A795",
"m. c #ADACAB",
"M. c #A9A6A3",
"N. c #BCBCBD",
"B. c #ED8F84",
"V. c #C6AB8C",
"C. c #C9AE94",
"Z. c #CDB494",
"A. c #C8B298",
"S. c #DCB79C",
"D. c #DBBD9B",
"F. c #D4B596",
"G. c #DBA78A",
"H. c #E1AF94",
"J. c #E0BE9A",
"K. c #F7AD92",
"L. c #D0B8BF",
"P. c #C9B1A5",
"I. c #F7B3B3",
"U. c #DFC09E",
"Y. c #E4C09C",
"T. c #F5C09D",
"R. c #DEC1A1",
"E. c #DDC5A9",
"W. c #E2C4A3",
"Q. c #E6C9A6",
"!. c #EACAA6",
"~. c #EDCDA9",
"^. c #E9C7A3",
"/. c #F8CBA7",
"(. c #F4D2AD",
"). c #E0CBB1",
"_. c #F6D7B1",
"`. c #FCDBB4",
"'. c #FEDDBB",
"]. c #FBD6B0",
"[. c #FFE1B9",
"{. c #C1C1C1",
"}. c #CACACA",
"|. c #D5D5D5",
" X c #F1CEC7",
".X c #F7DCDA",
"XX c #FFE1D9",
"oX c #F8E8E7",
/* pixels */
"OXOXOXOXOXOXOXOXOXOXOXOXOXOXOXOXOXOXOXOXOXOXOXOXOXOXOXOXOXOXOXOXOXOXOXOXOXOXOXOXOXOXOXOXOXOXOXOXOXOXOXOXOXOXOXOXOXOXOXOXOXOXOXOX",
"OXOXOXOXOXOXOXOXOXOXOXOXOXOXOXOXOXOXOXOXOXOXOXOXOXOXOXOXOXOXOXOXOXOXOXOXOXOXOXOXOXOXOXOXOXOXOXOXOXOXOXOXOXOXOXOXOXOXOXOXOXOXOXOX",
"OXOXOXOXOXOXOXOXOXOXOXOXOXOXOXOXOXOXOXOXOXOXOXOXOXOXOXOXOXOXOXOXOXOXOXOXOXOXOXOXOXOXOXOXOXOXOXOXOXOXOXOXOXOXOXOXOXOXOXOXOXOXOXOX",
"OXOXOXOXOXOXOXOXOXOXOXOXOXOXOXOXOXOXOXOXOXOXOXOXOXOXOXOXOXOXOXOXOXOXOXOXOXOXOXOXOXOXOXOXOXOXOXOXOXOXOXOXOXOXOXOXOXOXOXOXOXOXOXOX",
"OXOXOXOXOXOXOXOXOXOXOXOXOXOXOXOXOXOXOXOXOXOXOXOXOXOXOXOXOXOXOXOXOXOXOXOXOXOXOXOXOXOXOXOX8.OXOXOXOXOXOXOXOXOXOXOXOXOXOXOXOXOXOXOX",
"OXOXOXOXOXOXOXOXOXOXOXOXOXOXOXOXOXOXOXOXOXOXOXOXOXOXOXOXOXOXOXOXOXOXOXOXOXOXOXOXOXOXOXOX8.OXOXOXOXOXOXOXOXOXOXOXOXOXOXOXOXOXOXOX",
"OXOXOXOXOXOXOXOXOXOXOXOXOXOXOXOXOXOXOXOXOXOXOXOXOXOXOXOXOXOXOXOXOXOXOXOXOX6.OXOXOXOXOX8.9.OXOXOXOXOXOXOXOXOXOXOXOXOXOXOXOXOXOXOX",
"OXOXOXOXOXOXOXOXOXOXOXOXOXOXOXOXOXOXOXOXOXOXOXOXOXOXOXOXOXOXOXOXOXOXOXOXOX6.0.OXOXOXOX7.f.9.OXOXOXOXOXOXOXOXOXOXOXOXOXOXOXOXOXOX",
"OXOXOXOXOXOXOXOXOXOXOXOXOXOXOXOXOXOXOXOXOXOXOXOXOXOXOXOXOXOXOXOXOXOXOXOXOX7.d.0.OXOXOX9.f.9.OXOXOXOXOXOXOXOXOXOXOXOXOXOXOXOXOXOX",
"OXOXOXOXOXOXOXOXOXOXOXOXOXOXOXOXOXOXOXOXOXOXOXOXOXOXOXOXOXOXOXOXOXOXOXOXOXOX0.g.s.0.0.OX:.3.OXOXOXOXOXOXOXOXOXOXOXOXOXOXOXOXOXOX",
"OXOXOXOXOXOXOXOXOXOXOXOXOXOXOXOXOXOXOXOXOXOXOXOXOXOXOXOXOXOXOXOXOXOXOXOXOXOX9.f.f.f.5.:.:.:.OXOXOXOXOXOXOXOXOXOXOXOXOXOXOXOXOXOX",
"OXOXOXOXOXOXOXOXOXOXOXOXOXOXOXOXOXOXOXOXOXOXOXOXOXOXOXOXOXOXOXOXOXOXOXOXOXOXOX6.8.8.>.4.q.6._ OXOXOXOXOXOXOXOXOXOXOXOXOXOXOXOXOX",
"OXOXOXOXOXOXOXOXOXOXOXOXOXOXOXOXOXOXOXOXOXOXOXOXOXOXOXOXOXOXOXOXOXOXOXOXOXOXOXOXOXOX_ 4.q.6._ OXOXOXOXOXOXOXOXOXOXOXOXOXOXOXOXOX",
"OXOXOXOXOXOXOXOXOXOXOXOXOXOXOXOXOXOXOXOXOXOXOXOXOXOXOXOXOXOXOXOXOXOXOXOXOXOXOXOXOXOXOX<.3.<.OXOXOXOXOXOXOXOXOXOXOXOXOXOXOXOXOXOX",
"OXOXOXOXOXOXOXOXOXOXOXOXOXOXOXOXOXOXOXOXOXOXOXOXOXOXOXOXOXOXOXOXOXOXOXOXOXOXOXOXOXOXOXOX) OXOXOXOXOXOXOXOXOXOXOXOXOXOXOXOXOXOXOX",
"OXOXOXOXOXOXOXOXOXOXOXOXOXOXOXOXOX                  OXOXOXOXOXOXOXOXOXOXOXOXOXOXOXOXOXOXOXOXOXOXOXOXOXOXOXOXOXOXOXOXOXOXOXOXOXOX",
"OXOXOXOXOXOXOXOXOXOXOXOXOXOXOX                        OXOXOXOXOXOXOXOXOXOXOXOXOXOXi OXOXOXOXOXOXOXOXOXOXOXOXOXOXOXOXOXOXOXOXOXOX",
"OXOXOXOXOXOXOXOXOXOXOXOXOXOXOX                          OXOXOXOXOXOXOXOXOXOXOXOXs d OXOXOXOXOXOXOXOXOXOXOXOXOXOXOXOXOXOXOXOXOXOX",
"OXOXOXOXOXOXOXOXOXOXOXOXOXOX                              OXOXOXOXOXOXOXOXOXOXOXf ] OXOXOXOXOXOXOXOXOXOXOXOXOXOXOXOXOXOXOXOXOXOX",
"OXOXOXOXOXOXOXOXOXOXOXOXOX                  j <           OXOXOXOXOXOXOXOXOXOXOXf f OXOXOXOXOXOXOXOXOXOXOXOXOXOXOXOXOXOXOXOXOXOX",
"OXOXOXOXOXOXOXOXOXOXOXOXOXOX              2 L.N V %.X     OXOXOXOXOXOXOXOXOXOXs f s OXOXOXOXOXOXOXOXOXOXOXOXOXOXOXOXOXOXOXOXOXOX",
"OXOXOXOXOXOXOXOXOXOXOXOXOXOX      . v 3 e.P..XC.!._.o..     OXOXOXOXOXOXOXOXOXs ] i OXOXOXOXOXOXOXOXOXOXOXOXOXOXOXOXOXOXOXOXOXOX",
"OXOXOXOXOXOXOXOXOXOXOXOXOX        X b.V.].'.'.'.'.`.~.V     OXOXOXOXOXOXOXOXOXs ] i OXOXOXOXOXOXOXOXOXOXOXOXOXOXOXOXOXOXOXOXOXOX",
"OXOXOXOXOXOXOXOXOXOXOXOXOX        X v.c.r.r.A.].c.r.t.B     OXOXOXOXOXOXOXOXp ] s OXOXOXOXOXOXOXOXOXOXOXOXOXOXOXOXOXOXOXOXOXOXOX",
"OXOXOXOXOXOXOXOXOXOXOXOXOX        , r.M.- A M.r.m., h l.:   OXOXOXOXOXOXOXOXa ] i OXOXOXOXOXOXOXOXOXOXOXOXOXOXOXOXOXOXOXOXOXOXOX",
"OXOXOXOXOXOXOXOXOXOXOXOXOX    o X e.h.N.X F m.A {.; 1 N.,   OXOXOXOXOXOXOXV.] ] i OXOXOXOXOXOXOXOXOXOXOXOXOXOXOXOXOXOXOXOXOXOXOX",
"OXOXOXOXOXOXOXOXOXOXOXOXOXOX  u V.W.h.N.# D m.S {., h N., OXOXOXOXOXOX  u.(.v...s OXOXOXOXOXOXOXOXOXOXOXOXOXOXOXOXOXOXOXOXOXOXOX",
"OXOXOXOXOXOXOXOXOXOXOXOXOXOX  v (.(.j.|.{.|.m.F }.}.}.{.q OXOXOXOXo : : u.`.D.Y.D.OXOXOXOXOXOXOXOXOXOXOXOXOXOXOXOXOXOXOXOXOXOXOX",
"OXOXOXOXOXOXOXOXOXOXOXOXOXOXOX@ > v.W.k.h.h.n.R.x.h.h.x.D.OXOXo # h c , o.D.(.'.~.Z.OXOXOXOXOXOXOXOXOXOXOXOXOXOXOXOXOXOXOXOXOXOX",
"OXOXOXOXOXOXOXOXOXOXOXOXOXOXOX    e.(.Q.D.A.D.^.F.R.W.R.R.OX@ g z A A c < V.[.`.~.OXOXOXOXOXOXOXOXOXOXOXOXOXOXOXOXOXOXOXOXOXOXOX",
"OXOXOXOXOXOXOXOXOXOXOXOXOXOXOX. O ..(.'.Z.w 7 < u R.[.~.  OXz A A A N A : V.`.(.D.OXOXOXOXOXOXOXOXOXOXOXOXOXOXOXOXOXOXOXOXOXOXOX",
"OXOXOXOXOXOXOXOXOXOXOXOXOXOXOX; P W a.].(.D.D.D.R._.~.G.    S S S S S N : e.Z.F.OXOXOXOXOXOXOXOXOXOXOXOXOXOXOXOXOXOXOXOXOXOXOXOX",
"OXOXOXOXOXOXOXOXOXOXOXOXOXOX# z I R Q H._.].].].].T.a.~   A A c z c A S : d n OXOXOXOXOXOXOXOXOXOXOXOXOXOXOXOXOXOXOXOXOXOXOXOXOX",
"OXOXOXOXOXOXOXOXOXOXOXOXOXOX; x N U Q  X).E.F.S.S./ K M S c k # X - z l & p a OXOXOXOXOXOXOXOXOXOXOXOXOXOXOXOXOXOXOXOXOXOXOXOXOX",
"OXOXOXOXOXOXOXOXOXOXOXOXOX@ z A N M ~ I..XoX;.B..X( J N x ; . OXOXOXX X + p a OXOXOXOXOXOXOXOXOXOXOXOXOXOXOXOXOXOXOXOXOXOXOXOXOX",
"OXOXOXOXOXOXOXOXOXOXOXOXOX# x S A N U H *.B.R W K./ U c , OXOXOXOXOXOXOX0 i OXOXOXOXOXOXOXOXOXOXOXOXOXOXOXOXOXOXOXOXOXOXOXOXOXOX",
"OXOXOXOXOXOXOXOXOXOXOXOXOX: x A x S c 4 L 2.E R ,.` M 2 OXOXOXOXOXOXOXOXOXOXOXOXOXOXOXOXOXOXOXOXOXOXOXOXOXOXOXOXOXOXOXOXOXOXOXOX",
"OXOXOXOXOXOXOXOXOXOXOXOX- z c l A A S h 1 w.' ! 1.C h X OXOXOXOXOXOXOXOXOXOXOXOXOXOXOXOXOXOXOXOXOXOXOXOXOXOXOXOXOXOXOXOXOXOXOXOX",
"OXOXOXOXOXOXOXOXOXOXOX. h S g ; S S S S k y w.p.c.D g o OXOXOXOXOXOXOXOXOXOXOXOXOXOXOXOXOXOXOXOXOXOXOXOXOXOXOXOXOXOXOXOXOXOXOXOX",
"OXOXOXOXOXOXOXOXOXOXOX# z S 1 ; A S S S S g k z.l.F 1 OXOXOXOXOXOXOXOXOXOXOXOXOXOXOXOXOXOXOXOXOXOXOXOXOXOXOXOXOXOXOXOXOXOXOXOXOX",
"OXOXOX@ # # # OXOX@ - h N A g # z N S A S S g z z.x X OXOXOXOXOXOXOXOXOXOXd d s OXOXOXOXOXOXOXOXOXOXOXOXOXOXOXOXOXOXOXOXOXOXOXOX",
"OXOXOX, x x l : # 1 A x A A q   , A S S S S A 1 c z X OXOXOXOXOXOXOXs d d {  .[ i OXOXOXOXOXOXOXOXOXOXOXOXOXOXOXOXOXOXOXOXOXOXOX",
"OXOXOX; z x x x x x x A A A q   , A S S S A A x 1 g X OXOXOXOXOXd d ]  . . .} b OXOXOXOXOXOXOXOXOXOXOXOXOXOXOXOXOXOXOXOXOXOXOXOX",
"OXOXOX  1 S x x A x x A A x ;   - c S S S S S h z z @ OXOXd b b |  . .{ ] b p OXOXOXOXOXOXOXOXOXOXOXOXOXOXOXOXOXOXOXOXOXOXOXOXOX",
"OXOXOX= > z x x x x A A x ,     o g S S S S l 4 P e.m b f {  . .| ] ] d i i OXOXOXOXOXOXOXOXOXOXOXOXOXOXOXOXOXOXOXOXOXOXOXOXOXOX",
"i a ] ] t 1 c A A x A x 2 %       g S S S l 4 Y -./.D.{  . .] ] ] i i OXOXOXOXOXOXOXOXOXOXOXOXOXOXOXOXOXOXOXOXOXOXOXOXOXOXOXOXOX",
"i b $.$.$.i 2 x x A x q 8 9       g S S c 6 T K.[.(.Y.&.f ] a i OXOXOXOXOXOXOXOXOXOXOXOXOXOXOXOXOXOXOXOXOXOXOXOXOXOXOXOXOXOXOXOX",
"t f $.$.$.@.t 1 x A g 0  .0 o     g S x 6 G =.[.].Y.`.D.O.OXOXOXOXOXOXOXOXOXOXOXOXOXOXOXOXOXOXOXOXOXOXOXOXOXOXOXOXOXOXOXOXOXOXOX",
"OXd  .$.$.$.#.e ; ; 8 +.@.0       - ; : $ 5 r Z.[.~.!.W.OXOXOXOXOXOXOXOXOXOXOXOXOXOXOXOXOXOXOXOXOXOXOXOXOXOXOXOXOXOXOXOXOXOXOXOX",
"OXOX] $.$.$.$.X.i t  .$.@.0 o                 w C Z.OXOXOXOXOXOXOXOXOXOXOXOXOXOXOXOXOXOXOXOXOXOXOXOXOXOXOXOXOXOXOXOXOXOXOXOXOXOX",
"OXi ] $.$.$.$.$.$.$.$.$.+.*                         OXOXOXOXOXOXOXOXOXOXOXOXOXOXOXOXOXOXOXOXOXOXOXOXOXOXOXOXOXOXOXOXOXOXOXOXOXOX",
"OXOXf  .$.$.$.$.$.$.$.$. .O                           OXOXOXOXOXOXOXOXOXOXOXOXOXOXOXOXOXOXOXOXOXOXOXOXOXOXOXOXOXOXOXOXOXOXOXOXOX",
"OXOXOXf +.$.$.$.$.$.$.@.8 o                         OXOXOXOXOXOXOXOXOXOXOXOXOXOXOXOXOXOXOXOXOXOXOXOXOXOXOXOXOXOXOXOXOXOXOXOXOXOX",
"OXOXi i d ] @.$.$.$.p = .                           OXOXOXOXOXOXOXOXOXOXOXOXOXOXOXOXOXOXOXOXOXOXOXOXOXOXOXOXOXOXOXOXOXOXOXOXOXOX",
"OXOXOXOXOXi f [ @.$.9               OXOX            OXOXOXOXOXOXOXOXOXOXOXOXOXOXOXOXOXOXOXOXOXOXOXOXOXOXOXOXOXOXOXOXOXOXOXOXOXOX",
"OXOXOXOXOXOXOXOXf f *               OXOX            OXOXOXOXOXOXOXOXOXOXOXOXOXOXOXOXOXOXOXOXOXOXOXOXOXOXOXOXOXOXOXOXOXOXOXOXOXOX",
"OXOXOXOXOXOXOXOXOXOXO             OXOXOXOX          OXOXOXOXOXOXOXOXOXOXOXOXOXOXOXOXOXOXOXOXOXOXOXOXOXOXOXOXOXOXOXOXOXOXOXOXOXOX",
"OXOXOXOXOXOXOXOXOXOXOX            OXOXOXOX        OXOXOXOXOXOXOXOXOXOXOXOXOXOXOXOXOXOXOXOXOXOXOXOXOXOXOXOXOXOXOXOXOXOXOXOXOXOXOX",
"OXOXOXOXOXOXOXOXOXOXOXOX          OXOXOXOXOXOXOXOXOXOXOXOXOXOXOXOXOXOXOXOXOXOXOXOXOXOXOXOXOXOXOXOXOXOXOXOXOXOXOXOXOXOXOXOXOXOXOX",
"OXOXOXOXOXOXOXOXOXOXOXOXOX        OXOXOXOXOXOXOXOXOXOXOXOXOXOXOXOXOXOXOXOXOXOXOXOXOXOXOXOXOXOXOXOXOXOXOXOXOXOXOXOXOXOXOXOXOXOXOX",
"OXOXOXOXOXOXOXOXOXOXOXOXOXOXOXOXOXOXOXOXOXOXOXOXOXOXOXOXOXOXOXOXOXOXOXOXOXOXOXOXOXOXOXOXOXOXOXOXOXOXOXOXOXOXOXOXOXOXOXOXOXOXOXOX",
"OXOXOXOXOXOXOXOXOXOXOXOXOXOXOXOXOXOXOXOXOXOXOXOXOXOXOXOXOXOXOXOXOXOXOXOXOXOXOXOXOXOXOXOXOXOXOXOXOXOXOXOXOXOXOXOXOXOXOXOXOXOXOXOX",
"OXOXOXOXOXOXOXOXOXOXOXOXOXOXOXOXOXOXOXOXOXOXOXOXOXOXOXOXOXOXOXOXOXOXOXOXOXOXOXOXOXOXOXOXOXOXOXOXOXOXOXOXOXOXOXOXOXOXOXOXOXOXOXOX",
"OXOXOXOXOXOXOXOXOXOXOXOXOXOXOXOXOXOXOXOXOXOXOXOXOXOXOXOXOXOXOXOXOXOXOXOXOXOXOXOXOXOXOXOXOXOXOXOXOXOXOXOXOXOXOXOXOXOXOXOXOXOXOXOX"
};
