/* XPM */
static char *a8loj_wozwe[] = {
/* columns rows colors chars-per-pixel */
"64 64 250 2 ",
"   c #553808",
".  c #68370D",
"X  c #377C04",
"o  c #3D7B1B",
"O  c #3B6C14",
"+  c #54510D",
"@  c #654F17",
"#  c #4E6A03",
"$  c #437905",
"%  c #4A7515",
"&  c #656B16",
"*  c #694A27",
"=  c #705433",
"-  c #4D7731",
";  c #726636",
":  c #564531",
">  c #64574C",
",  c #7C6F4C",
"<  c #566C6D",
"1  c #656A6A",
"2  c #575F5E",
"3  c #396E71",
"4  c #876D4E",
"5  c #907768",
"6  c #3C8402",
"7  c #3E8407",
"8  c #3D8118",
"9  c #448401",
"0  c #4A8502",
"q  c #448B04",
"w  c #4C8C04",
"e  c #44850C",
"r  c #458A0A",
"t  c #4B8C0A",
"y  c #49870A",
"u  c #528D02",
"i  c #528F0C",
"p  c #4C9206",
"a  c #4D920C",
"s  c #4E9809",
"d  c #539202",
"f  c #53930D",
"g  c #589807",
"h  c #448514",
"j  c #478A12",
"k  c #4B8D13",
"l  c #4C8D1A",
"z  c #468819",
"x  c #558716",
"c  c #4E9114",
"v  c #4E921B",
"b  c #539413",
"n  c #5A9C13",
"m  c #53941B",
"M  c #579819",
"N  c #629E17",
"B  c #67A61B",
"V  c #61A10D",
"C  c #488E26",
"Z  c #4C9328",
"A  c #529422",
"S  c #5C9C23",
"D  c #559C2B",
"F  c #579925",
"G  c #4C9636",
"H  c #549B37",
"J  c #4B8934",
"K  c #629C29",
"L  c #699C37",
"P  c #739032",
"I  c #5BA22A",
"U  c #5AA336",
"Y  c #68A628",
"T  c #71AB2B",
"R  c #69A837",
"E  c #76A939",
"W  c #73B237",
"Q  c #5AA318",
"!  c #3B9D7F",
"~  c #4D944D",
"^  c #59A847",
"/  c #57A957",
"(  c #59AE59",
")  c #66AA46",
"_  c #77A948",
"`  c #6AB247",
"'  c #65B457",
"]  c #7AAB55",
"[  c #47986C",
"{  c #58AD6B",
"}  c #5AB477",
"|  c #55AC71",
" . c #66B768",
".. c #67B978",
"X. c #7D994B",
"o. c #6DC479",
"O. c #869A4C",
"+. c #88B55A",
"@. c #83AE4B",
"#. c #998E6F",
"$. c #85AB66",
"%. c #8CB666",
"&. c #94BA64",
"*. c #94B777",
"=. c #A79B77",
"-. c #94C25A",
";. c #9AC368",
":. c #9DC472",
">. c #A3C973",
",. c #51728D",
"<. c #3C9D92",
"1. c #3B93AE",
"2. c #748E8E",
"3. c #59B985",
"4. c #56BB96",
"5. c #4CA588",
"6. c #65BC8F",
"7. c #54B6A7",
"8. c #45ABB9",
"9. c #5A92A5",
"0. c #5DC293",
"q. c #69C588",
"w. c #68C799",
"e. c #74CB9B",
"r. c #77CE8F",
"t. c #59C4A8",
"y. c #5AC8B7",
"u. c #65C6A2",
"i. c #66CCB5",
"p. c #75D4B7",
"a. c #71CFAF",
"s. c #338CD1",
"d. c #0D8AFC",
"f. c #1C97FB",
"g. c #1C96FA",
"h. c #128EFB",
"j. c #2CA4FE",
"k. c #2FA8FF",
"l. c #2BA3F7",
"z. c #33ABFE",
"x. c #39ADFD",
"c. c #34A9F5",
"v. c #3CB3FD",
"b. c #39B3FD",
"n. c #34A4DD",
"m. c #4FADCD",
"M. c #42B4FC",
"N. c #44BBFD",
"B. c #4AB9FA",
"V. c #54BCFA",
"C. c #4BB5EC",
"Z. c #5FA8CC",
"A. c #5AD3DB",
"S. c #55C8CE",
"D. c #67D7D7",
"F. c #6FD4CB",
"G. c #58D7E7",
"H. c #4DC4FE",
"J. c #4FC9FB",
"K. c #51C6FE",
"L. c #53C9FE",
"P. c #5BCBFD",
"I. c #5BC4F9",
"U. c #4FD9FD",
"Y. c #4FD7FA",
"T. c #54DAFD",
"R. c #5BDCFD",
"E. c #58D8F5",
"W. c #65DBE9",
"Q. c #64CAFA",
"!. c #64DDFD",
"~. c #6BDEFD",
"^. c #69D4FA",
"/. c #78D7FA",
"(. c #71D1F1",
"). c #5BE0FF",
"_. c #62E2FF",
"`. c #6EE1FD",
"'. c #6DE3F6",
"]. c #74E2FD",
"[. c #7CE4FE",
"{. c #7CE8FF",
"}. c #72E0EC",
"|. c #AE998D",
" X c #B8A799",
".X c #8DB1B6",
"XX c #A7AA8D",
"oX c #C3B1A7",
"OX c #C0AD9F",
"+X c #AACA88",
"@X c #B5D68D",
"#X c #BAD59B",
"$X c #B2C995",
"%X c #86D4B8",
"&X c #BED8A2",
"*X c #A9CDA1",
"=X c #8DC48B",
"-X c #C1DB9E",
";X c #C3DBA9",
":X c #C8DCB5",
">X c #CEC3BB",
",X c #CDE3B1",
"<X c #83B9CF",
"1X c #87DCCA",
"2X c #84DCFB",
"3X c #93DEFB",
"4X c #8DDCEB",
"5X c #B1D3E4",
"6X c #B8D7EB",
"7X c #B4D7EC",
"8X c #83E6FE",
"9X c #8AE7FE",
"0X c #8DE8FE",
"qX c #83E7FB",
"wX c #93EAFE",
"eX c #9BECFE",
"rX c #80E4ED",
"tX c #A2EEFE",
"yX c #A7E9FB",
"uX c #A7F0FF",
"iX c #ACF1FE",
"pX c #B3F2FE",
"aX c #BCF4FD",
"sX c #A9DCD0",
"dX c #D3D9CA",
"fX c #E4DEDB",
"gX c #D7E7C7",
"hX c #DCE7D9",
"jX c #E9ECDD",
"kX c #E2ECD9",
"lX c #E6F2DA",
"zX c #C1DFF5",
"xX c #C7F4FD",
"cX c #D7F7FC",
"vX c #D3E8F3",
"bX c #E6EDE6",
"nX c #E6EDE9",
"mX c #E9EEE9",
"MX c #EAEBE3",
"NX c #EBF1EC",
"BX c #E9F4E5",
"VX c #F3F6EA",
"CX c #EEF3F2",
"ZX c #E8FAFC",
"AX c #F1F7F3",
"SX c #F4F8F5",
"DX c #F5FBFA",
"FX c #FEFEFE",
"GX c #F9FAF6",
"HX c #EBDFE1",
/* pixels */
"T.' d t...U.U.U.U.U.U.U.U.Z / { p ( q } ).U.Y.U.Y.U.U.U.Y.Y.Y.U.Y.U.Y.Y.Y.Y.T.~ ^ G 7 v G.U.Y.U.U.U.U.U.U.U.t.t v c b A.U.U.U.Y.",
"G.F q t.U.Y.U.U.Y.r.r.o.G.S.y.t.^ / g I G.U.T.Y.U.T.U.T.Y.T.T.Y.T.T.T.T.T.Y.E.M | 3.q } U.Y.T.Y.T.U.Y.T.U.T.^ v J 0 0.U.U.U.U.U.",
"o.v u S.).Y.R.u.W s g g ^ ).U.Y.).' v ( y.).Y.T.T.T.T.T.T.T.T.T.T.T.T.T.T.T.G.M } y.} T.U.Y.Y.T.T.T.T.T.T.G.v c 4.{ E.Y.).G.A.D.",
"Q 0.q.E.T.).u.N p k l c s A.U.Y.).t.^ ( } ).T.T.T.T.T.E.R.T.T.T.T.T.T.T.E.T.y.w { ).T.T.).).T.E.E.T.T.T.T.u.a w y.U.E.U.D.o.T B ",
"p y.).E.T.A.I r a U U Q Q t.Y.E.T.R.u.z D W.T.E.R.T.T.T.R.T.P.R.R.T.T.T.E.T.G.t | ).T.E.T.R.T.U.T.W.G.W.W.U w I G.T.E.R.` s c a ",
"p q.).E.). .p ` b U U U W ^ ).).E.).t.e l A.R.R.R.R.R.R.R.R.R.R.R.R.R.R.R.T.R.F 7.).T.R.R.R.T.D.o.T W W T T n y.R.R.R.o.q 8 M f ",
"V B D.).D.F w q.^ / o.U U I G.T.R.R.E.C g y.R.E.R.R.R.R.R.T.R.T.R.R.R.R.R.R.).o.t.).R.R.R.R.D.W g z j h s B I ).R.R.G.S e l f U ",
"M w ' _.q.a f U w.y.).A.3.R A.).R.R.R.o.( w._.R.R.R.R.R.R.!.!.R.R.R.R.R.R.R.R.E.W.R.R.R.R.W.R b m g c c n T B 0.R.).q.r M l t ( ",
"N Z U D.U g c A W.).!.).).w.i.).!.R.R._.{ 3.).R.R.R.R.R.!.R.!.R.!.!.R.!.R.!.R.R.R.R.!.R._.q.t l c U j c a B S g A.'.Z h c c t ( ",
"g 4.Z ' f } A  ._.R.R.R.!.W.W._.R.!.!._.H 3._.!.!.!.!.!.!.R.!.!.!.R.!.R.R.!.!.!.!.!.!._.e.i t b M 0.M M } k z 9 y.t.w H D k f ^ ",
"G 7.~ t y 5...e.F.p.p.F.!.!.!.!.!.!.!.!.^ q.`.!.!.!.!.!.!.!.!.!.!.!.!.!.!.!.!.!.!.!.R.W.S Z G f c w.Z v i.A k w  ./ 0 ^ / u d | ",
"W.y.o M n A ' V V N B B e.!.~.!.!.!.!.!.D.D.!.!.!.!.!.!.!.!.!.!.!.!.!.!.~.!.!.!.!.~._.F.u { w.u v i.I A W.D H m D ^ 0 ' } n 4.W.",
"~.F.f k z $ h C e ( Z e B D._.~.!.!.~.!.!.!.~.!.~.!.!.~.!.~.!.!.!.!.~.~.!.~.!.!.!.~._.q.0 I y.u I '.} | `.` U I k z X / a.D._._.",
"~. .e j m % G } t w.F b f ..'.~.~.~.~.~.~.~.~.~.~.~.!.~.~.~.~.~.~.~.~.~.!.~.~.~.~.~.`.` w A D.w.w.'.`.`.~.D.u.~ e e ~ D.F.=Xr.p.",
"a.f k k S h H w.0 w.C j Z l i.`.~.~.~.~.~.`.~.~.~.~.~.~.~.~.`.~.~.~.~.~.~.~.~.~.~.~.`.` d F W.].`.`.~.~.~.'.~.J X J F.o.W g V I ",
") t n k k K ..D.{ p.M a ' t ..].'.`.`.`.`.`.`.`.].`.`.`.`.`.`.`.~.~.~.].~.].].`.~.`.].` 0 ( ].'.'.`.`.`.}.w.q.m X ^ Y p t c c M ",
"t b x % f +XnX[.`.].^ u r.k U }.~./.`.`.].`.`.`.~.~.~./.`.].`.`.~.].~.~.].~.~.~.~.~.'.F.Z i.].~.~.].~.'.' w w 8 h j o k k k z n ",
"b r X.P q @XFXwXW.[.F.} r.f y w.].].].].].].].].[.~.].].].].].].].~.[.].].].].].].'.].].}.].].~.].~.{...w v n h O o | m f H ~ g ",
"b +.%.P p R GXxX~.].].{.' y t H ].].].].].].].].].].].].].].].].].].].].].].].].].]./.].[.~.~.[.~.].a.f v b f 8 - y p...d { w.d ",
"N gXoXx n w ,XDX].].].[.^ i  .u p.].].].].].].].].].].].].].].].].[.].].].].].].].[.[.[.~.[.[.].[.{.` t f o.m { 9.$ ' F.u | i.u ",
"$.FX5 # Q 7 ;XFX8X/.].{.6.N e.d a.{./.[.[.].[.[.[.[.[.].[.~.[.[.[.].[.].[.[.].[.[.].[.[.[.[.].].[.F.b c w u.' D.9.$ S ~.u.sX%Xd ",
"dXFX X* +.6 ,XDXrX8X[.{.}.e.a.0 a.{.[.[.[.[.[.[.{./.[.[.[.[.[.[.[.[.[.[.{./.[.[.[.[.[.[.[.[.[.[.rX` y m q *XBXcX.X# a F.cXFXVXX.",
"GXFX|.* L q ;.ZXZXFXyX[.8X8Xp.d p.{.[.[.[.[.[.[.[.[.[.[.[.[.[.[.[.[.[.[.[.[.[.[.[.[.[.[.[.[.qX8Xr.0 F S q ;XFXFX X+ l *.FXFXFXgX",
"NXFX|.@ Y 6 +XFXFXFXxX~.8X8XrXn p.qX[.8X[.qX[.[.[.8X[.[.8X8X[.[.[.8X[.8X8X[.[.8X[.8X[.[.[.qX{.rXR 9 ) { 9 gXFXFXOX+ C F VXFXFXFX",
"AXFX X  l p -XFXFXFXZXqX[.8XqXR D.8X8X8XqX[.8XqX[.[.8X[.8X[.8X8X8X[.8X[.qX[.[.qXqX{.8X[.[.8X8Xp.f t ) sX+.FXFXFXOX  f k kXFXFXFX",
"AXFX=.  M s #XFXFXFXFXwX[.8X8Xp.9X8X8X8XqXqX8X[.qX8X8XqX8X8X8X[.8X8X8X8X8X8X8X8XqX8X8X8X[.8X0X) t f T VXFXFXFXFX X+ M m bXFXFXFX",
"CXGX4 ; T p &XFXDXFXFXaX{.9X8X9X9X8X8X8X8X8X8X8X8X8X8X8X8X8X8X8X8X8X8X8X9X8X8X8X8X8X8XqX8X9XF.f b b g -XFXFXFXFXoX+ M l lXFXFXFX",
"CXGX, #.@XX #XFXFXFXFXxX{.9X9X8X8X8X9X8X9X8X9X9X9X9X8X9X9X8X9X9X8X9X9X8X8X8X9X8X9X8X9XqX8X0Xe.d M b l kXFXFXFXFXHX& e j gXFXFXFX",
"GXCX* |.lX6 #XFXFXFXFXxX[.qXqX8X9X9X9X9X9X9X9X9X9X8X9X9X9X9X9X9X9X9X9X9X9X9X9X9X9X9XqX9X9X0X .y l q ;.FXFXFXFXFXMX& %.d #XFXGXDX",
",XHX.  X@X6 #XFXGXDXFXvXwXyXyXwX9X9X9X0X9X9X9X9X9X9X9X0X9X9X0X9X9X9X9X9X9X9X9X9X9X9X0X0X9X9XY D =Xw gXFXFXFXFXFXfX= &.q #XFXAXAX",
"Y XX=  XW 6 #XFXAXAXGXxXcXFXFXcX9X9X0X0X9X0X0X0X0X0X0X0X9X0X0X0XwX9X9X9X0X9X9X9X0X0X0X0X9X4Xn Y BX-XFXFXFXFXFXFXfX* L 6 #XFXAXAX",
"7 E 4 O.s r -XFXAXAXAXGXFXFXFXFXxX9X0X0XwX9XwX9X0X0X0X0X0X0X0X0XwX0XwX9XwXwX9XwX0XwX0X0XwX%Xu S VXFXFXFXFXFXFXFXhX@ c a -.FXAXAX",
"b x = $.b N hXFXAXAXFXFXFXFXFXFXFXeX0XwX0XwXwXwXwX0XwX0XwX0X0XwX0XwXwXwXwX0X0XwX0XwXwX0XwX%Xb q :XFXDXFXFXFXFXFXMXP b p _ FXAXVX",
"z y 4 *.t n kXDXVXVXGXFXFXFXFXFXFXxX9XwXwXwXwXwXwXwXwXwXwXwXwXwXwXwXwXwXwXwXwXwXwXwXwXwXeX1Xg S lXFXGXFXFXFXFXGXDXO.f y ] FXAXNX",
"b q X.$.6 ] FX>.W @.-.VXFXFXFXFXFXZXwXwXeXwXwXwXwXwXwXwXwXwX0XwXwXwXwXwXwXwXwXwXwXwXwX0XxX,Xp $.FXFXGXAXDXDXSXVXFX, P R E FXCXkX",
"K m ] kXs :X,Xt c s q ;.FXFXFXFXFXFXxX0XwXwXwXwXwXeXwXeXwXeXeXwXwXwXeXwXeXeXwXwXwXeXwXtXFXlXr +XFXFXAXAXSXSXVXAXFX4 . Y ;.FXAX+X",
"E _ K *.l #Xb k b f j b -XFXFXFXFXFXcXcXZXZXiXeXeXeXwXeXeXeXeXwXeXeXeXeXeXwXeXeXeXeXwXpXFXSX;.BXFXFXSXSXSXAXDXlX-.E T B #XDXhXR ",
";X+.l _ _ Y A F f R b 7 W VXFXFXFXFXZXFXFXFXZXtXeXeXeXeXeXeXeXeXeXeXeXeXeXeXeXeXeXeXwXxXFXFXFXFXFXAXAXAXAXDXlX@.7 b c h &.AXhXl ",
"MXL w ] L q _ Y b +.j K e ;.FXFXFXFXDXFXFXFXFXcXeXeXeXeXeXuXeXeXeXeXeXeXtXeXeXeXeXtXeXcXFXFXFXFXGXAXGXAXAXAX_ r z b l % 7 +XgXt ",
"dX- q _ m p _ R d _ w ,XD E FXFXFXGXFXFXFXFXFXZXeXeXuXeXeXeXuXeXeXtXtXtXeXtXeXtXtXeXwXxXFXFXFXFXAXAXAXAXFX;Xr e R _ X L D F +X7 ",
"fX= o h z X =X,X@X;X:.+Xt Y lXFXAXGXFXFXFXFXFXFXpXeXtXeXtXuXtXtXtXtXtXeXuXeXuXtXeXaXcXZXFXFXFXFXAXSXSXAXNX_ e e L _ 9 E L 6 W c ",
"#XT T v e :.nXGXCXNXDX+X6 f &XFXCXGXFXFXFXFXFXFXxXeXtXuXuXtXtXuXtXuXuXuXeXuXtXuXeXxXFXFXFXFXFXGXSXAXSXAXhX] H q %.dXi X.P - v e ",
"E c z o l T @XkXNXbXNXhXS 6 +.FXAXAXFXFXFXFXFXFXxXtXtXtXtXtXtXyXtXtXuXtXuXuXuXuXuXZXFXFXFXGXGXAXSXSXAXSX+XL *.p dXDXE ; *X*.r J ",
"$ j % % F h g &.AXbXbXAX+.&.+.FXAXAXFXFXFXFXFXFXZXcXZXcXuXuXuXuXuXuXuXuXuXuXuXuXuXDXFXFXDXAXAXAXAXSXmXAX%.m :X@XbXNXO.= ;XM w +.",
"z Z % O n L _ A BXmXnXNXDX+._ FXCXAXDXFXFXFXFXFXAXFXFXFXaXuXiXiXuXuXuXuXiXuXuXuXpXFXFXFXFXAXSXAXAXSXmXmXL l hXCXbXDX=.  m h % b ",
"r ] #.+ f $.%.7 &XNXbXNXAXF @.FXAXAXGXFXFXFXFXFXGXFXFXFXcXyXiXiXiXiXiXiXiXiXiXuXpXFXFXFXFXAXAXmXCXAXCXgXM b hXBXbXDX#.@ l h % k ",
"X *.|.+ s +X%.9 E mXmXmXnXM -.DXAXAXAXGXFXFXFXFXGXFXFXFXZXiXiXiXiXiXiXiXiXiXiXaXZXFXFXFXGXAXNXbXmXbXSX+XX ] CXbXbXnX:Xb $.W % - ",
"X $.4 u f @XL M Y gXNXmXnX+XdXFXAXAXGXAXDXGXGXDXAXDXFXFXDXpXiXiXpXiXpXiXpXiXiXZXFXAXFXFXAXAXmXmXmXnXmX;X;.dXCXbXbXnX&X6 R ,X, * ",
"X %.4 k w $X;.:.S :XAXbXbXCXCXAXSXSXSXAXAXAXSXAXSXAXFXFXFXaXpXpXpXpXpXiXpXpXcXFXFXAXGXAXAXnXbXnXbXnXnXnXmXmXnXnXhXnX*.r r ;X5 # ",
"I $X* k s +XCX+X6 #XCXbXnXbXnXnXmXAXAXmXAXAXSXAXCXAXDXGXAXZXFXaXiXpXpXpXpXxXFXFXDXAXCXmXnXnXnXbXfXhXhXhXdXfXhXfXhXhXL e w $X5 # ",
"=.oX@ N d #XgXK q %.AXjXjXjXjXMXjXjXMXHXVXVXVXNXVXVXGXGXFXFXFXDXaXaXaXxXaXZXFXGXVXVXVXVXVXVXjXjXjXjXkXkXjXjXjXjXmX;Xe % N ,X5 # ",
".X|.5 6.w sX.Xr w +.6X5X5X5X5X5X5X5X5X5X5X5X5X5X5X6X6X6X6X6XzXzXyX0X3X3X3XyXzXzX6X5X5X5X5X5X5X5X5X5X5X5X5X5X5X5X6X=XH ~ x 5X5 + ",
"s.< < ! n n.f.C d G g.d.d.h.g.g.f.f.f.f.f.f.f.f.f.f.f.f.f.g.f.g.d.d.d.d.h.f.f.f.g.f.g.d.d.d.d.d.d.d.d.d.d.d.d.d.d.[ J < & s.,.. ",
"l.1 & d H N.v.! m D c.j.j.j.z.z.z.x.x.x.x.z.z.z.z.x.z.z.x.z.z.z.j.j.j.l.j.z.z.x.z.z.k.j.j.j.j.j.j.j.j.j.j.j.j.j.k.~ p ~ . Z.1.  ",
"Q.= # x [ c.k.8./ Z z.z.z.M.x.z.z.j.j.z.z.z.j.j.k.z.j.M.B.x.z.z.z.z.z.z.z.z.z.z.k.z.k.z.z.z.z.z.z.z.z.z.z.z.z.j.b.U i % . 9.s.. ",
"Z.> [ u <.M.c.G 0 G z.j.j.x.z.k.z.Q.(.Q.B.B.(.Q.M.x.B.z.M.x.x.M.j.M.M.j.B.z.k.z.z.z.k.z.z.z.z.z.z.z.x.z.c.x.x.x.n.c x J * 1 c.: ",
"1.* 8.A 8.V.C.C r { B.B.B.M.B.M.z.v.M.M.z.x.M.v.z.z.z.k.z.z.z.x.k.x.z.k.z.z.k.k.z.k.z.z.k.B.z.z.c.M.V.Q.I.I.V.Q.m.c t / : , M.: ",
",.& s A C.V.V.Z 0 { V.I.V.M.V.B.v.v.M.b.v.M.v.N.v.v.v.V.I.x.k.z.z.j.k.v.B.N.N.N.N.N.z.z.z.k.M.M.B.B.x.M.c.k.z.j.5.r $ <.2 = z.2 ",
"1 @ p 5.v.l.l.| g <.b.b.N.I.M.B.N.v.K.K.K.L.L.L.L.N.x.M.B.x.z.z.z.z.M.x.x.x.x.b.H.H.N.N.N.N.B.H.V.L.H.N.B.H.H.H.7.v 7.9X2.* C.2 ",
"> ~ / M.v.I.2XS.H m.P././.2XP.I.K.H.K.K.L.L.K.H.H.H.I.P.K.H.K.K.K.H.Q.V.x.v.M.v.M.v.N.N.N.M.v.v.N.H.H.L.K.L.J.L.C.k R T.Z.. Z.,.",
"= Z.S.H.K.Q./.Y F J.^.(.P.N.H.H.H.H.H.H.H.H.H.P.P.P.Q.P.L.K.H.H.L.L.K.K.L.L.L.L.L.L.L.L.L.L.L.P.^.2X2XK.L.L.L.L.S.c 9 a.<X. 9.Z.",
"> I.^.Q.H.H.H.C ~ v.z.x.b.M.v.v.v.b.v.v.v.v.b.H.L.L.J.H.L.H.v.N.K.N.N.K.L.J.H.J.K.H.I.N.N.H.N.N.B.K.V.N.N.N.N.N.C.C $ 4.m.. 2.Z.",
"< L.2XQ.H.K.L.5.5.T.L.L.L.L.K.L.L.L.K.L.K.K.L.L.L.H.J.K.H.L.L.L.K.M.N.I.P.H.L.J.K.K.v.N.N.N.N.v.N.v.v.N.V.N.I.H.v.~ z v.v.* 1 P.",
"< J.H.H.K.K.^.4X4X0X3X/.P.H.K.K.H.L.H.K.K.K.H.L.H.K.L.L.K.L.H.H.L.L.K.P.^.Q.^.^.^.^.^.^.Q./.2XJ.[.Q.Q.L.P.L.P.L.Y.~ ~ L.T.2 = I."
};
