/* XPM */
static char *cl9w3_6z04p[] = {
/* columns rows colors chars-per-pixel */
"64 64 243 2 ",
"   c #2C2C2C",
".  c #2D2D2D",
"X  c #2E2E2E",
"o  c #2E2F2F",
"O  c #2F2F2F",
"+  c #302C2B",
"@  c #312F2F",
"#  c #3E2B29",
"$  c #392E2D",
"%  c #3A2F2D",
"&  c #3A2F2E",
"*  c #39302F",
"=  c #3B302F",
"-  c #3C302F",
";  c #3D312F",
":  c #2F2F30",
">  c #303030",
",  c #313131",
"<  c #323232",
"1  c #333232",
"2  c #333333",
"3  c #373130",
"4  c #363131",
"5  c #353232",
"6  c #333636",
"7  c #343434",
"8  c #353535",
"9  c #363636",
"0  c #363737",
"q  c #373737",
"w  c #333838",
"e  c #383838",
"r  c #393939",
"t  c #3A3A3A",
"y  c #3B3B3B",
"u  c #3C3C3C",
"i  c #3D3D3D",
"p  c #3E3E3E",
"a  c #3F3F3F",
"s  c #7D1F13",
"d  c #5B261F",
"f  c #66261E",
"g  c #722016",
"h  c #772217",
"j  c #7D2012",
"k  c #7F2013",
"l  c #4E2824",
"z  c #422F2C",
"x  c #4A2E29",
"c  c #592721",
"v  c #5B2620",
"b  c #5C2720",
"n  c #502823",
"m  c #5C2920",
"M  c #3F4040",
"N  c #3F4141",
"B  c #404040",
"V  c #414141",
"C  c #424242",
"Z  c #434343",
"A  c #444444",
"S  c #454545",
"D  c #464646",
"F  c #474747",
"G  c #484848",
"H  c #494949",
"J  c #4A4A4A",
"K  c #4B4B4B",
"L  c #4C4C4C",
"P  c #4D4D4D",
"I  c #4E4E4E",
"U  c #4F4F4F",
"Y  c #4F5151",
"T  c #505050",
"R  c #515151",
"E  c #505252",
"W  c #525252",
"Q  c #535353",
"!  c #545454",
"~  c #555555",
"^  c #565656",
"/  c #575757",
"(  c #585858",
")  c #595959",
"_  c #5A5A5A",
"`  c #5B5B5B",
"'  c #5B5C5C",
"]  c #5C5C5C",
"[  c #5D5D5D",
"{  c #5E5E5E",
"}  c #5F5F5F",
"|  c #606060",
" . c #616161",
".. c #626262",
"X. c #636363",
"o. c #636464",
"O. c #646464",
"+. c #656565",
"@. c #666666",
"#. c #686868",
"$. c #696969",
"%. c #6A6A6A",
"&. c #6B6B6B",
"*. c #6C6C6C",
"=. c #6D6D6D",
"-. c #6E6E6E",
";. c #6F6F6F",
":. c #717171",
">. c #727272",
",. c #737373",
"<. c #747474",
"1. c #757575",
"2. c #767676",
"3. c #777777",
"4. c #797979",
"5. c #7A7A7A",
"6. c #7C7C7C",
"7. c #7D7D7D",
"8. c #7E7E7E",
"9. c #7F7F7F",
"0. c #8B1B0D",
"q. c #881D0F",
"w. c #891D0F",
"e. c #8A1D0F",
"r. c #8B1D0F",
"t. c #8C1D0F",
"y. c #931909",
"u. c #911B0B",
"i. c #941808",
"p. c #951808",
"a. c #941908",
"s. c #951908",
"d. c #941909",
"f. c #951909",
"g. c #961808",
"h. c #961908",
"j. c #971908",
"k. c #961909",
"l. c #971909",
"z. c #961A09",
"x. c #941A0B",
"c. c #941C0D",
"v. c #991808",
"b. c #981908",
"n. c #981909",
"m. c #991909",
"M. c #9A1908",
"N. c #9B1908",
"B. c #981A09",
"V. c #991A09",
"C. c #9A1A09",
"Z. c #9B1A09",
"A. c #811F12",
"S. c #841E11",
"D. c #861E10",
"F. c #808080",
"G. c #818181",
"H. c gray51",
"J. c #838383",
"K. c #848484",
"L. c #858585",
"P. c #868686",
"I. c #888888",
"U. c #898989",
"Y. c #8A8A8A",
"T. c #8B8B8B",
"R. c #8C8C8C",
"E. c #8D8D8D",
"W. c #8E8E8E",
"Q. c #8F8F8F",
"!. c #919191",
"~. c #929292",
"^. c #939393",
"/. c #939494",
"(. c #949494",
"). c #959595",
"_. c #969696",
"`. c #979797",
"'. c #989898",
"]. c #999999",
"[. c #9B9B9B",
"{. c #9C9C9C",
"}. c #9D9D9D",
"|. c #9E9E9E",
" X c #9F9F9F",
".X c #A0A0A0",
"XX c #A1A1A1",
"oX c #A2A2A2",
"OX c #A3A3A3",
"+X c #A4A4A4",
"@X c #A5A5A5",
"#X c #A6A6A6",
"$X c #A7A7A7",
"%X c #A8A8A8",
"&X c #A9A9A9",
"*X c #AAAAAA",
"=X c #ABABAB",
"-X c #ADADAD",
";X c #B1B1B1",
":X c #B2B2B2",
">X c #B3B3B3",
",X c #B4B4B4",
"<X c #B6B6B6",
"1X c #B7B7B7",
"2X c #B8B8B8",
"3X c #B9B9B9",
"4X c #BABABA",
"5X c #BBBBBB",
"6X c #BDBDBD",
"7X c #BEBEBE",
"8X c #BFBFBF",
"9X c #C0C0C0",
"0X c #C1C1C1",
"qX c #C2C2C2",
"wX c #C3C3C3",
"eX c #C4C4C4",
"rX c #C5C5C5",
"tX c #C6C6C6",
"yX c #C7C7C7",
"uX c #C8C8C8",
"iX c #C9C9C9",
"pX c #CACACA",
"aX c #CBCBCB",
"sX c #CCCCCC",
"dX c #CDCDCD",
"fX c #CECECE",
"gX c #CFCFCF",
"hX c #D0D0D0",
"jX c #D1D1D1",
"kX c #D2D2D2",
"lX c #D3D3D3",
"zX c #D4D4D4",
"xX c #D5D5D5",
"cX c #D6D6D6",
"vX c #D7D7D7",
"bX c #D8D8D8",
"nX c #D9D9D9",
"mX c #DADADA",
"MX c #DBDBDB",
"NX c #DCDCDC",
"BX c #DDDDDD",
"VX c #DEDEDE",
"CX c #DFDFDF",
/* pixels */
"y.y.f.f.y.d.k.d.d.l.f.a.n.f.y.k.f.y.f.k.y.d.l.k.p.l.d.d.k.d.y.f.f.y.d.k.d.d.l.p.k.l.d.y.k.f.y.f.k.y.f.n.a.f.l.d.d.k.d.y.f.f.y.y.",
"y.y.f.f.y.d.k.d.y.l.f.a.n.f.y.k.f.y.f.k.y.d.l.f.p.j.s.s.j.s.i.h.h.i.s.j.s.s.j.p.f.l.d.y.k.f.y.f.k.y.f.n.a.f.l.y.d.k.d.y.f.f.y.y.",
"f.f.n.n.f.l.B.k.f.V.l.h.C.n.f.n.l.f.l.B.k.k.V.n.x.t.e.w.r.w.q.e.e.q.w.r.w.e.t.x.n.V.k.k.B.l.f.l.n.f.n.C.h.l.V.f.k.B.l.f.n.n.f.f.",
"f.f.n.n.f.l.B.k.f.V.l.h.C.n.k.B.l.f.l.B.k.j.C.N.k ; = = - % $ & & $ % - = = ; k N.C.j.k.B.l.f.l.B.k.n.C.h.l.V.f.k.B.l.f.n.n.f.f.",
"y.y.f.f.y.d.k.d.y.l.f.a.l.f.y.k.f.i.h.b.g c v d l > : o 0 K.~././.~.K.0 o : > l d v c g b.h.i.f.k.y.f.l.a.f.l.y.d.k.d.y.f.f.y.y.",
"d.d.l.l.d.k.l.f.d.B.k.s.m.l.d.l.k.0.S.D.n w Y E E Q W T ` tXnXMXMXnXtX` T W Q E E Y w n D.S.0.k.l.d.l.m.s.k.B.d.f.l.k.d.l.l.d.d.",
"k.k.B.B.k.l.m.l.k.C.l.l.Z.B.k.m.M.f 4 3 @ P sXkXjXxXkXhXzXbXvXmXmXvXbXzXhXkXxXjXkXsXP @ 3 4 f M.m.k.B.Z.l.l.C.k.l.m.l.k.B.B.k.k.",
"d.d.k.k.d.f.l.d.d.n.f.p.B.j.g.u.b # M _.[.#XcXvXcXmXvXxXnXcXzXvXvXzXcXnXxXvXmXcXvXcX#X[._.M # b u.g.j.B.p.f.n.d.d.l.f.d.k.k.d.d.",
"d.y.f.f.y.d.k.d.d.l.f.p.z.A.s h * N #.jXvXvXbXxXcXnXcXzXbXxXlXvXvXlXxXbXzXcXnXcXcXnXvXvXjX#.N * h s A.z.p.f.l.d.d.k.d.y.f.f.y.d.",
"l.l.V.V.l.B.C.n.l.Z.B.n.c.z 1 5 > P.mXBXnXmXVXMXMXCXMXmXBXMXnXNXNXnXMXBXmXMXCXnXvXMXvXcXmXmXP.> 5 1 z c.n.B.Z.l.n.C.B.l.V.V.l.l.",
"f.f.l.l.f.k.l.f.f.B.v.j x + o.-X&X8XmXmXcXvXMXbXnXNXbXvXmXbXcXnXnXcXbXmXvXnXVX5.~ / ~ ^ O.aXqX&X-Xo.+ x j v.B.f.f.l.k.f.l.l.f.f.",
"a.a.h.h.a.s.l.p.p.n.j m 6 ' `.BXmXcXvXnXcXcXMXvXbXMXbXxXnXvXxXbXbXxXvXnXcXpX XK p @.+.I e R.2XNXBX`.' 6 m j n.p.p.l.s.a.h.h.a.a.",
"n.n.C.C.l.m.Z.B.z.c.x 6 Z 9XNXBXNXnXmXkXfXgXkXgXlXCXMXmXBXMXnXBXBXnXMXBXBX,X8 > @.CXVX'.< o 7.zXNXNX9XZ 6 x c.z.B.Z.m.l.C.C.n.n.",
"f.f.n.n.f.l.B.j.A.z + ' 9XlXcXmXMXmXuX! D F G S ;.BXMXbXmXbXcXnXnXcXbXmXnX:Xq O O.MXmX).< < y ) aXvXlX9X' + z A.j.B.l.f.n.n.f.f.",
"y.y.f.k.y.d.k.g.s 1 o.`.NXvXxXhX^.U.8.e X O > X F T.I.@XnXxXlXvXvXlXxXvXvX;X8 X ..nXvX^., < O A yXxXcXNX`.o.1 s g.k.d.y.k.f.y.y.",
"k.k.n.B.k.l.m.u.h 5 -XBXNXaXuX5XC X > 2 y C Z Z i >   #.fXcXvXmXmXvXnXMXmX2XF B ;.NXMX_.< 2 , F pXbXnXBXBX-X5 h u.m.l.k.B.n.k.k.",
"f.f.l.l.f.k.M.b * > &XMXkX) A S 8 , < O U.yXuXuX[.2 < r R rXbXnXnXcXbXmXvXxXpXrXaXMXmX)., < O A iXvXbXNXmX&X> * b M.k.f.l.l.f.f.",
"y.y.f.f.i.0.f # N P.8XvXgXD X , , > a H.<XvXnXmX#X< , > 9 <.$XvXcXlXxXvXzXcXnXcXvXnXbX(., O ) ~.gXzXcXnXcX8XP.N # f 0.i.f.f.y.y.",
"f.f.l.l.h.S.4 M #.mXmXgX3XA > 2 < > L hXbXvXMXMX$X2 < < < . 7.NXnXcXbXmXvXbXMXbXhXwXwXI.7 S Q.BXmXcXbXNXvXmXmX#.M 4 S.h.l.l.f.f.",
"k.k.B.B.b.D.3 _.jXBXBX.Xi 7 < 2 2 > L gXbXbXNXNX%X2 < < 2 O F.VXmXvXnXMXbXmXNXNXOXu a e a 4XkXmXMXvXmXBXbXmXBXjX_.3 D.b.B.B.k.k.",
"y.y.k.k.g n @ [.vXnXmX].O < , < < O J aXxXzXbXnX#X< , , < > I F.dXzXxXbXzXcXnXcX9X).).*.q $.OXmXvXzXcXmXxXcXnXvX[.@ n g k.k.y.y.",
"d.d.k.j.c w P #XvXmXmX].> < , < < > J sXxXxXnXmX#X2 < , < < o V tXxXcXbXxXvXnXcXbXNXMX_., . ;.6XxXxXvXmXcXvXmXvX#XP w c j.k.d.d.",
"l.l.V.C.v Y sXcXbXVXVX}., 7 < 2 2 , L hXnXnXBXBX&X7 2 2 2 2 , D pXnXmXNXnXMXVXmXmXBXNX`.< 2 7 P dXnXMXVXmXMXVXbXcXsXY v C.V.l.l.",
"k.f.n.N.d E kXvXxXMXMX[., 2 < 2 2 > K fXvXvXmXmX$X2 2 < 2 2 , D uXvXbXmXmX8X#...L.mXmX).< 2 > D iXvXvXMXvXbXMXxXvXkXE d N.n.f.k.",
"p.p.x.k l E jXcXcXMXNX}., 2 < 2 2 > K dXcXcXmXmX%X2 < < 2 2 , S yXcXvXmX3XT.2   ..mXnX)., 2 , D iXcXbXNXvXnXMXcXcXjXE l k x.p.p.",
"l.j.t.; > Q xXmXnXCXCX X< 7 < 2 2 , L jXmXnXVXVX*X2 2 2 2 2 , S rXvXmXCX>.< 2 > @.VXBX'.< 2 2 J dXmXNXCXMXNXCXnXmXxXQ > ; t.j.l.",
"d.s.e.= : W kXvXcXMXNX[.> 2 , < < > K fXvXvXMXmX$X2 < < < < , 9 K ].mXmX9X^.< X O.VXBX'., . =.3XcXcXvXMXbXbXMXcXvXkXW : = e.s.d.",
"d.s.w.= o T hXxXzXmXmX].> < , < < > J sXxXxXnXnX#X2 < , < < , < X U.nXbXbX9X:.p P ^.!.%.9 O.XXMXbXzXvXmXxXvXmXzXxXhXT o = w.s.d.",
"k.j.r.- 0 ` zXnXbXBXBX.Xu 8 < 2 2 > L gXbXbXNXBX%X2 2 < 2 < < 2 > R.NXMXbXmXBX@.t y r t J tXnXmXMXvXmXBXnXmXBXbXnXzX` 0 - r.j.k.",
"d.s.w.% K.tXbXcXxXMXbXgX3XA > < < > K hXvXcXmXNX&X2 < < < < , < > T.mXnXbXMXBXuXqXrX0X0XtXvXbXmXnXxXbXMXvXbXMXxXcXbXtXK.% w.s.d.",
"y.i.q.$ ~.nXvXzXlXnXcXcXgXD O < < > a L.1XcXnXoX;.< , , < , , < > Y.bXbX+XI.R.T.T.E.T.Y.R.Y.I.^.gXzXcXnXxXcXnXlXzXvXnX~.$ q.i.y.",
"f.h.e.& /.MXmXvXvXNXnXnXkX) y < 2 < < O T.iXpX[ X 2 < < 2 < < 2 > R.MXBX4.a Z Z Z Z C C Z Z V ! aXbXnXBXbXnXNXvXvXmXMX/.& e.h.f.",
"f.h.e.& /.MXmXvXvXNXnXbXMXdXF.. > , 2 2 i S D q , 2 < < 2 < < < X Y.MXMXdXuXaXyXuXpXuXuXaXpXtXpXbXvXnXBXbXnXNXvXvXmXMX/.& e.h.f.",
"y.i.q.$ ~.nXvXzXlXnXcXxXnXbX:XT.E.` X > O o X *.,.< , , < , > u G.;XcXvXxXvXnXcXvXcXW.7.F.8.%XbXvXlXcXnXxXcXnXlXzXvXnX~.$ q.i.y.",
"d.s.w.% K.tXbXcXxXMXbXvXMXbXvXNXBXW.G K J J H =X=X2 < < < < > S pXvXvXnXcXbXmXvXhX4XG . O   9.mXnXxXbXMXvXbXMXxXcXbXtXK.% w.s.d.",
"k.j.r.- 0 ` zXnXbXBXmXnXBXmXvXMXmXjXfXgXsXsXhXnX&X2 2 < 2 < , S iXbXnXMXbXmXBXNXOXy 8 < 2 > H.NXMXvXmXBXnXmXBXbXnXzX` 0 - r.j.k.",
"d.s.w.= o T hXxXzXmXvXxXmXvXxXmXnXxXvXnXxXcXmXnX#X2 < , < < > A tXxXcXbXxXcXmXMX|.. , , < O F.nXbXzXvXmXxXvXmXzXxXhXT o = w.s.d.",
"d.s.e.= : W kXvXcXMXbXbXMXbXeX>X:XeXnXmXcXvXMXmX$X2 < < < < > S uXvXbXmXcXbXMX7XE.P 0 , < O G.MXnXcXvXMXbXbXMXcXvXkXW : = e.s.d.",
"l.j.t.; > Q xXmXnXCXNXMXCXBXR.7 7 T.NXmXbXmXVXVX*X2 2 2 2 2 , D aXnXmXBXmXNXBX{ X.gXI , 2 > K.VXNXnXNXCXMXNXCXnXmXxXQ > ; t.j.l.",
"p.p.x.k l E jXcXcXMXbXnXcX;.F < < G [ ] #XbXmXmX%X2 < < 2 2 O C yXcXvXnXcXnXBX( } lXU > 2 > G.mXnXxXbXNXvXnXMXcXcXjXE l k x.p.p.",
"k.f.n.N.d E kXvXxXMXnXwX'.p > 2 2 > > O (.mXmXmX$X2 2 < 2 < G >.dXcXbXmXvXaX.X-.K.kXU > 2 > H.MXnXcXvXMXvXbXMXxXvXkXE d N.n.f.k.",
"l.l.V.C.v Y sXcXbXVXVX{.O 2 < 2 2 < 2 < `.NXBXBX&X7 2 2 2 > F.VXMXbXmXNXxX-X7 %XVXzXU > 2 > J.BXNXbXMXVXmXMXVXbXcXsXY v C.V.l.l.",
"d.d.k.j.c w P #XvXmXmX'.. < , < < > X X ^.bXnXNX%X2 < < <   6.mXvXzXcXmX9.A > @XmXhXP O < O F.nXbXzXvXmXcXvXmXvX#XP w c j.k.d.d.",
"y.y.k.k.g n @ [.vXnXbX;X-.t , < , Q <.,.-XcXmX=X3.< , , 9 #..XbXvXlXxXmX&.e ,.3XnXhXP O < O F.nXvXzXcXmXxXcXnXvX[.@ n g k.k.y.y.",
"k.k.B.B.b.D.3 _.jXBXmXmXlXG > 2 > J.zXMXbXxXjX| O 2 < q K eXnXmXmXvXnXBX=.K dXfXfXuXP > 2 > 6.jXnXvXmXBXbXmXBXjX_.3 D.b.B.B.k.k.",
"f.f.l.l.h.S.4 M #.mXmXbXhXS . > < i  .kXMX7XW t , >   +.tXzXcXnXnXcXbXNX*.> G G G G 9 , 2 < y _ aXvXbXNXvXmXmX#.M 4 S.h.l.l.f.f.",
"y.y.f.f.i.0.f # N P.8XcXlXE.F.5.t . u G.P.1.2 o S J.F..XnXxXlXcXcXlXxXbX.XF.H.F.G.7.a > < > ~ T.fXzXcXnXcX8XP.N # f 0.i.f.f.y.y.",
"f.f.l.l.f.k.M.b * > &XmXNXMXnXdX( A D A Z Z F A =.NXMXbXmXbXcXnXnXcXbXmXbXMXVXmXNXzXI > 2 O J.BXmXcXbXNXmX&X> * b M.k.f.l.l.f.f.",
"k.k.n.B.k.l.m.u.h 5 -XBXBXnXvXnXaXtXiXpXyXuXsXiXdXNXnXbXMXnXvXmXmXvXnXMXbXnXNXMXBXcXU > 2 > K.CXMXvXnXBXBX-X5 h u.m.l.k.B.n.k.k.",
"y.y.f.k.y.d.k.g.s 1 o.`.NXcXzXvXvXzXvXbXxXxXnXvXcXnXcXzXvXxXlXvXvXlXxXvXzXcXbXQ.3.2.i O > O W L.fXzXcXNX`.o.1 s g.k.d.y.k.f.y.y.",
"f.f.n.n.f.l.B.j.A.z + ' 9XlXcXnXbXcXbXmXcXvXMXvXbXNXvXvXmXbXcXnXnXcXbXmXvXbXmX&.C S D F G F A ^ aXvXlX9X' + z A.j.B.l.f.n.n.f.f.",
"n.n.C.C.l.m.Z.B.z.c.x 6 Z 9XNXBXNXnXNXBXmXmXVXMXNXCXMXmXBXMXnXBXBXnXMXBXmXMXCXlXgXkXgXfXjXhXdXkXNXNX9XZ 6 x c.z.B.Z.m.l.C.C.n.n.",
"a.a.h.h.a.s.l.p.p.n.j m 6 ' `.BXmXcXvXbXxXcXmXvXvXMXbXxXnXvXxXbXbXxXvXnXxXbXMXbXvXMXcXcXnXbXvXMXBX`.' 6 m j n.p.p.l.s.a.h.h.a.a.",
"f.f.l.l.f.k.l.f.f.B.v.j x + o.-X&X8XmXmXcXvXMXbXnXNXbXvXmXbXcXnXnXcXbXmXvXbXNXnXbXMXvXcXmXmX8X&X-Xo.+ x j v.B.f.f.l.k.f.l.l.f.f.",
"l.l.V.V.l.B.C.n.l.Z.B.n.c.z 1 5 > P.mXBXnXmXVXMXMXCXMXmXBXMXnXNXNXnXMXBXmXMXCXMXMXVXmXnXBXmXP.> 5 1 z c.n.B.Z.l.n.C.B.l.V.V.l.l.",
"d.y.f.f.y.d.k.d.d.l.f.p.z.A.s h * N #.jXvXvXbXxXcXnXcXzXbXxXlXvXvXlXxXbXzXcXnXcXxXbXvXvXjX#.N * h s A.z.p.f.l.d.d.k.d.y.f.f.y.d.",
"d.d.k.k.d.f.l.d.d.n.f.p.B.j.g.u.b # M _.[.#XcXvXcXmXvXxXnXcXzXvXvXzXcXnXxXvXmXcXvXcX#X[._.M # b u.g.j.B.p.f.n.d.d.l.f.d.k.k.d.d.",
"k.k.B.B.k.l.m.l.k.C.l.l.Z.B.k.m.M.f 4 3 @ P sXkXjXxXkXhXzXbXvXmXmXvXbXzXhXkXxXjXkXsXP @ 3 4 f M.m.k.B.Z.l.l.C.k.l.m.l.k.B.B.k.k.",
"d.d.l.l.d.k.l.f.d.B.k.s.m.l.d.l.k.0.S.D.n w Y E E Q W T ` tXnXMXMXnXtX` T W Q E E Y w n D.S.0.k.l.d.l.m.s.k.B.d.f.l.k.d.l.l.d.d.",
"y.y.f.f.y.d.k.d.y.l.f.a.l.f.y.k.f.i.h.b.g c v d l > : o 0 K.~././.~.K.0 o : > l d v c g b.h.i.f.k.y.f.l.a.f.l.y.d.k.d.y.f.f.y.y.",
"f.f.n.n.f.l.B.k.f.V.l.h.C.n.k.B.l.f.l.B.k.j.C.N.k ; = = - % $ & & $ % - = = ; k N.C.j.k.B.l.f.l.B.k.n.C.h.l.V.f.k.B.l.f.n.n.f.f.",
"f.f.n.n.f.l.B.k.f.V.l.h.C.n.f.n.l.f.l.B.k.k.V.n.x.t.e.w.r.w.q.e.e.q.w.r.w.e.t.x.n.V.k.k.B.l.f.l.n.f.n.C.h.l.V.f.k.B.l.f.n.n.f.f.",
"y.y.f.f.y.d.k.d.y.l.f.a.n.f.y.k.f.y.f.k.y.d.l.f.p.j.s.s.j.s.i.h.h.i.s.j.s.s.j.p.f.l.d.y.k.f.y.f.k.y.f.n.a.f.l.y.d.k.d.y.f.f.y.y.",
"y.y.f.f.y.d.k.d.d.l.f.a.n.f.y.k.f.y.f.k.y.d.l.k.p.l.d.d.k.d.y.f.f.y.d.k.d.d.l.p.k.l.d.y.k.f.y.f.k.y.f.n.a.f.l.d.d.k.d.y.f.f.y.y."
};
