/* XPM */
static char *adn3y_9lz9h[] = {
/* columns rows colors chars-per-pixel */
"64 64 131 2 ",
"   c #9FEEF6",
".  c #9FEDF9",
"X  c #9CF2FA",
"o  c #A4EDF6",
"O  c #ABEDF6",
"+  c #A3EDF8",
"@  c #AAEDFA",
"#  c #B4EEF6",
"$  c #BCEEF6",
"%  c #B2EEFA",
"&  c #BAEEFA",
"*  c #A4F0F5",
"=  c #ACF0F6",
"-  c #A3F0FA",
";  c #ABF1FB",
":  c #B4F0F4",
">  c #BCF0F7",
",  c #B3F1FB",
"<  c #BBF2FC",
"1  c #C1EEFA",
"2  c #C3F2F6",
"3  c #CDF3F6",
"4  c #C3F3FB",
"5  c #CEF6FA",
"6  c #CDF1FD",
"7  c #CBF6FC",
"8  c #C9F5FF",
"9  c #CAF5FE",
"0  c #CDF6FC",
"q  c #CCF4FF",
"w  c #CFF5FF",
"e  c #CBF5FC",
"r  c #C9F8FE",
"t  c #CDF8FF",
"y  c #CBFAFB",
"u  c #D4F5F7",
"i  c #D8F6F4",
"p  c #D0F6F9",
"a  c #D3F4FB",
"s  c #D4F7F9",
"d  c #D7F6F9",
"f  c #D6F5FA",
"g  c #D1F3FD",
"h  c #D1F6FC",
"j  c #D2F7FD",
"k  c #D1F6FE",
"l  c #D0F6FF",
"z  c #D3F7FF",
"x  c #D4F4FF",
"c  c #D6F7FE",
"v  c #D3F6FC",
"b  c #D8F5FB",
"n  c #D9F6FA",
"m  c #DDF3FE",
"M  c #D9F6FC",
"N  c #D8F6FE",
"B  c #D9F7FF",
"V  c #DAF7FF",
"C  c #DEF5FD",
"Z  c #DAF6FC",
"A  c #D3F9FA",
"S  c #D6F8FA",
"D  c #D2F9FF",
"F  c #D1FAFF",
"G  c #D4F8FE",
"H  c #D9F8FA",
"J  c #DBF9FB",
"K  c #D8FBFF",
"L  c #DCFAFC",
"P  c #DEFAFD",
"I  c #DEF9FF",
"U  c #DEFBFF",
"Y  c #DDFCFF",
"T  c #DCFAFE",
"R  c #E3F9F6",
"E  c #E3F6FD",
"W  c #E7FAF8",
"Q  c #E7F9FB",
"!  c #E7FBFA",
"~  c #E0F9FD",
"^  c #E1F8FE",
"/  c #E0F9FE",
"(  c #E0F9FF",
")  c #E2F9FF",
"_  c #E2FAFE",
"`  c #E4F9FC",
"'  c #E6F8FC",
"]  c #E5FAFD",
"[  c #E7FBFC",
"{  c #E5FAFF",
"}  c #E4FBFF",
"|  c #E7FAFE",
" . c #E6FBFE",
".. c #E7FAFF",
"X. c #E6FBFF",
"o. c #E0FCFF",
"O. c #E3FCFF",
"+. c #E4FCFE",
"@. c #E7FCFF",
"#. c #E4FAFD",
"$. c #EAF8F9",
"%. c #EBF9FA",
"&. c #EEF9FB",
"*. c #E9F8FD",
"=. c #E8FAFC",
"-. c #E9FBFD",
";. c #EBFAFD",
":. c #E8FAFE",
">. c #E8FBFF",
",. c #E9FBFF",
"<. c #EBFAFF",
"1. c #EDF8FC",
"2. c #ECFAFD",
"3. c #EFFAFC",
"4. c #ECF9FF",
"5. c #ECFBFE",
"6. c #ECFBFF",
"7. c #EFFAFF",
"8. c #E8FCFD",
"9. c #EBFEFC",
"0. c #E8FDFF",
"q. c #EAFCFF",
"w. c #EBFDFF",
"e. c #EDFDFD",
"r. c #EDFCFF",
"t. c #EEFDFF",
"y. c #ECFEFE",
"u. c #ECFBFE",
"i. c #F4FCFE",
"p. c #F3FCFE",
"a. c #F9FDFF",
/* pixels */
"+ + + + + + + - @ + + @ + + . + + + + o + + + @ + + + + + + + + + + % 4 g 5 2 , # % + + + @ + + + + + + o + +   + + + + + + o + ",
"+ + + + + + + + + + + + @ @ o o @ @ + + + + + + + + + + + +   + @ % 4 Y @.` M F r < - + + + + + + + + + + + + + + + + + + + o   ",
"+ + + O @ @ + + + + + + + + + + + + + + + + + + + + + + + + + + + @ 4 P y.&.=.{ j & @ + + @ + + + + + . + + + + + + +   . + o o ",
"+ + + @ @ + + + + + . + + + + + + + + + + + + + + + + + + + +   + O & G >.&.&.5.6 & @ + + + + + + + + + + +   o o + + o + o + + ",
"+ + + + + . o   * o O @ % @ @ + X - + - + + + + + + + + + + + + + o # 5 ) { >.{ 6 & @ @ + + + + + + + + + + + + + o + . o + + + ",
"o + - + + + o = < 4 6 x 6 & + . o o . + + + O + + + o + +   + + + @ : 4 j Y M a & % @ @ + + + + + + + + + + + + + + + o + + + o ",
"+ + + + + @ & 4 ) >.w.5.O.5 % o & % @ + + + + + + + o + + + + + + O ; , > & & % @ + + + + . + @ + + . + +   + + + + + + + + + + ",
"+ + + + + & 6 P ` y.9.W ! ` C m x 9 % @ + + + + + . + + + + + + + + + + - + - . + + + + + o + . + + + + + + + + + o + + o + o . ",
"+ + + @ # 2 n ` p.5.>.>.9.>.=.5.>.{ a > @ + + o @ + + . . + + + + + + + + + + + + + + + + + o + o + + + + + + o + + . + + + + + ",
"+ + o % 4 j ` =.5.>.{ w.=.=.>.&.&.5.) 4 , + + o @ + + + + + + @ + + + + + + + o   + + + . o + + + + + + + +   + o . o + o + o + ",
"- + O & t O.>.$.E { { { ` >.&.5.p.e.H 2 @ + + + + + @ + + @ @ @ + + + + + + + + +   + o + + + + + + +   + + + + + + o + + + + . ",
"+ + O < j P >.=.{ { { ! w.@.w.@.{ P A 2 , % @ @ + + + . + + + + + . + +   o + + + + + + + + o +   + + + o + + + + + + + + + o + ",
"+ + @ < 9 x ) ) ) ) O.) L L L H g e $ # < < ; = + + + + + + + . + + + + + + + + + + + + o . o + + + o + + o   + + + + + o + + . ",
"+ + @ % > 4 0 A n H a n d S s u q 4 > 4 0 0 < , + + + @ + + + . + + + + + + + + o o + + + + + . + + + + + + + + + + + + + + + o ",
"+ + + + + , > < 5 5 g a G G G S M F q Y @.L 4 % O @ @ % @ O + + + + +   + + + + o o + + o + + + + o + o + + + + + + + + + + + + ",
"@ + - X   o = , 4 4 7 g x M M a ` L L $.i.&.x < & < 4 & % @ + + + + + + + +   + o . + o + + o + + o o   + + + +   + + . o + + o ",
"+ + @ + . + @ @ % < < > 4 4 4 9 P ) =.&.p.w.P n 0 n { >.s : O + + + + @ + + + + o + + o + + + + + + + + + + + + + + + + + +   o ",
"+ + + + + + % & 1 4 4 e 0 g 5 q m { =.p.p.9.@.) a E >.y.P 3 % + + + + + + @ + + . + + + o + + + o . + o + + + + + + + + + + o   ",
"+ + + + ; O < q x Y P ) @.L a x C ` e.i.p.p.w.w.R >.>.&.w.G > + + + + + + + + + + + + + + + + + + + + + + + + +   + + o + + + + ",
"+ + + + O # 9 Y R =.y.5.e.{ C H ` ! y.i.i.p.p.p.i.i.y.p.p.@.r ; @ + + + + + + + o + + o . + + + . + o + + + + + + +   o + o + + ",
"o o - + @ 4 g L 9.w.&.&.&.>.{ @.{ w.p.i.a.i.i.i.a.i.i.a.a.5.G , @ + . + + o + + + + o + + + + + o + o + + + + + + + + o + + + + ",
"+ + o O > r A u ) { { { *.=.` E w.w.5.p.i.i.i.i.i.p.i.a.a.5.Y 4 @ + . - o o O o + + + . + + + + + + + + o + o +   + + +   + + o ",
"+ @ * % 4 j F 3 x j G P P { >.$.w.=.1.p.p.p.p.p.p.p.i.a.i.1.P 9 , = * o @ , @ o o + o + + + + + + + + . + + o + + + + + + + + + ",
"@ + = % $ q q 4 4 4 $ 2 q P >.=.W ` >.5.p.y.&.y.&.p.i.a.i.1.M 6 & % O o % 4 < O + + + + + + + + o + + o + . + + + + +   + + o + ",
"+ + @ @ , 4 r g 6 & ; ; > G 5.p.5.=.$.>.>.>.5.5.p.i.i.a.i.y.S 1 % % ; , 4 r 9 2 + + + + + + + + o . + + o + + o o + + o + + +   ",
"+ + + + @ < F M x 4 , @ 2 C 5.p.p.&.>.5.>.*.$.1.&.y.p.i.i.p.P e % < < , # > < , + + + + + + - + + + + o + + + + + + + + + + + + ",
"+ + + + O > G { P 9 > , 2 L w.p.p.p.p.5.y.5.&.>.w.y.y.i.i.p.` g j q F 9 > O = * + + + @ + + + @ + + + + + . . + + + + + + + + + ",
"+ @ + + O > G @.Y j 4 4 q P { y.y.p.p.p.p.y.y.=.@.y.i.i.i.p.! ` O.m E Y 4 O @ + @ + + + + + + - + o + + o + o +   + + o o o + + ",
"+ + + + + % e n j e 4 q G ) { >.>.e.p.p.p.5.9.E L =.p.i.i.p.>.>.Y a M F < @ @ @ + + + + + + + + + o . + + o + + + . + + + + o + ",
"o + + + + @ & 9 1 $ 4 6 S L ` { =.5.p.i.i.y.=.n d R y.5.*.E ) L y 3 > < % + + + + + + + + + + + + + o + + + + + + o + + + + + + ",
"+ + + + + + @ , % < 4 9 g L ~ E R 5.p.p.i.y.{ n x P @.w.m G g A < , ; ; + + + . + + + @ + + + + + + + . . o o + + o + o . + + o ",
"+ @ @ + + + + ; O , < 9 3 J @.L { 5.p.&.p.w.) d 5 d i n q 9 2 2 < , + - + @ + . + + + @ + + + + + + o . + + + + + + + + o + + + ",
"+ + + + + + + + O , , > g M P j Y { ` 9.>.R M 9 1 4 4 < & & & & ; @ O o + + + +   + + + + + o +   + + + + + + + + + o o . + + + ",
". + o + + o + + + + ; $ g E ` d m E ` @.>.) x 4 4 4 4 < # % @ @ @ ; - @ @ + + - o + + + o + + + + + + + + o + + + + o o + o + + ",
"o + o + + o + + - + O 2 G { ` R m Y P ) m F 4 & 1 4 4 < % O + + @ @ O + + + + + + + + +   + + + o   o +   o + + + + +   +   o + ",
"+ + + + . + + + + + ; < q Y Y P x 4 4 j j & @ @ % , % @ @ + + + @ o + + + + + ; + o + + + + + + o + + + + + + + +   + + + + + + ",
"o + + + + + + + + + @ ; & 4 4 1 < = O < & @ @ @ @ + @ + + O @ + @ + + @ + + + @ + + + + + + + + o o + + + + + + + + + + + + + + ",
"+ +   + + + + + + + + o + @ @ @ = * o = @ @ + @ - + + - + @ @ + @ + + + + + + + o + +   + + + + + + + + + + o   + +   + + o   + ",
"+ + + + + + + + + + + + + + + + + + *   + + + . + + + + + + + + + + + + + + + + + +   + + + + . + + + + +   + + o + + + + + + + ",
"+ + + + + + + + + + + + . + + + + + + - + @ @ - + @ + @ + + +   + + + + + + @ + + + + + + + + + + + + + + + + + + + o + + o + + ",
"+ + + + + + + + + + + + + + + + + + + + + + + @ + + + +   + + + + + + + + + . + + o + + + + + + o + + o + + + + +   + + o + + + ",
"+ + + + +   o + + + + + @ + + + + @ + @ @ + + + + + + + + + + + + + + + o + + o + + + + + o + o + + + + o . o + + + + + + + +   ",
"  + + + +   + + + + + + . + + + + @ + + + + + @ + +   + + + +   + + + . + + + . + o . o . + + + + + + . + + o + + + +   + + + + ",
"+ + + + + o + + + + + + + + + + + + + + + + + @ + + + + o + + o + + + + + o + o + + + + + o + + . + o + + + + + + o + + + + o + ",
"o + +   + + + + + + + + @ + @ + + + + @ @ + + + + + + + o + o + + + + + + + + + + + + . o + + o o + o + + . + + + o + o + + + o ",
"o + + + + + o + @ + + + + + + + + + + + + + + + + + + + + . + + + + + + + + + + . o + o + + + + + + + + + o o + + + + . + o + + ",
"o o + + + + +   + + @ + + + @ + + + + + + + + + + + + + + + + + + + . + + o o o + + + + + + + . o + + o + + + + + + + + + + + + ",
"o . o + + + + + @ + + + + @ + + @ + + + + + @ + . o + + o + + o + + + + o . + + + o + + o + + o + + + . + + o + . o + o + + + o ",
"+ + + + + + + + + + + . o + + + o + + + + + + + + + + + + + o + + o + + o + + o + + - + + + + + + + + + + + + + + + + + @ + @ + ",
"+ o + + o . o + . o + o + + + o + + +   + + o o o . + o + + . + + + + o + + . + + + + + + - + + + . + + + + + + + + + + + @ + @ ",
"+ + o . + + + + + o + + + + + + + +   + o + + o + . + + + o o . + + + . + + + + o + + + + + - + + o + + + + + @ @ + + + + + + + ",
"+ o + + + o + + + + + + + + . + + + + o + + o   o + o + + + + + . o + + o + + o + + ; + + - + + o + + + + + @ + + + + + + + + + ",
"+ o + + . o o + + +   + + + + + + + + + + + + + + + o + + + + + + + + + + o + + + + - + + + + + + + + . + + + + + + O @ + + + @ ",
"+ + + + + + + + + + + + + + + + + + + +   + + + + + + + o + o + + o + + + + + + + + + o + + + + + + @ + . . O O # < < % + + + + ",
". + + o + + + . o + + + + + + +   + + + + + + + + + + o + + o + + + o + o + + o - + + + + - - + O @ @ @ O $ $ 1 M P P q % + @ + ",
"+ o + + o + + o + + o + + + +   o + + o + + + + o + + . . + + + + o + . + + + + + + + + + + ; ; % & 1 1 6 6 E 1.=.p.5.M 4 @ + @ ",
"+ + + + o   + + + o + + + + + o o + + o . +   + + + + + + + + + + + o o , < % o + @ + O @ & 9 F E { >.>.{ @.w.{ C P Y q 4 , @ + ",
"+ + + + o + +   +     + + + + + + + + + + + + + + + + + + @ + o @ + ; ; < < , - + + + + ; > 4 9 a x Y G a S a S A g 7 2 , O o - ",
"+ + + + o + + + + + + o + + +   + + + + + + + + + + + @ @ @ % @ @ @ ; % % % O + O + + @ @ , < < > > 4 > 4 4 4 4 4 < : O o o o + ",
"+   + + + + + + + + + + + + + + o . + o + + + + + + + @ , , < < % @ @ @ @ O + . @ O @ + @ + + @ O = = = , , , % ; = @ o . - + + ",
"+ o o   + + + + + + + + o + +   + o + + + + + + + + @ @ % , < < ; + + + + @ + + , , @ + - + + + - + @ @ @ @ @ O @ + + + + + + + ",
"+   + o + + + + + + + + + + o o + . + + + + + + + + + + @ @ % @ @ + - + + + + @ , , @ + + + + + + + + + + + + @ + + + + + + + + ",
"+ + + + o + + + + + + + + + o o + o + + + + + + + + + + + + @ + + + + + + ; @ % , @ @ + @ + + + @ + + + - + + + + + + @ + + + + ",
"+ + + o o   + +   + + + + + + + + + + + + + + + + + + + - + + + + + + + ; , < 1 , @ + @ @ + + + + + + + + + + + + + + @ + + - + "
};
