/* XPM */
static char *_eed6db9c27548e3e2db2ecb03397ae5XyamQTWVjnLgS5aw[] = {
/* columns rows colors chars-per-pixel */
"90 90 187 2 ",
"   c #7D715B",
".  c #80745E",
"X  c #847560",
"o  c #847965",
"O  c #8B7D64",
"+  c #8B7F69",
"@  c #8D8066",
"#  c #8C806A",
"$  c #918265",
"%  c #93856C",
"&  c #96886E",
"*  c #98886E",
"=  c #8E8774",
"-  c #8F8875",
";  c #918670",
":  c #958A71",
">  c #9B8D73",
",  c #968F7A",
"<  c #9F8E7A",
"1  c #9F9175",
"2  c #9D927A",
"3  c #9F987C",
"4  c #A29376",
"5  c #A3957B",
"6  c #A8967E",
"7  c #A6997E",
"8  c #A99A7E",
"9  c #9B9380",
"0  c #9F9981",
"q  c #A49683",
"w  c #A59A82",
"e  c #AB9D83",
"r  c #A79788",
"t  c #A69D8A",
"y  c #AB9E89",
"u  c #B09E86",
"i  c #AF9F90",
"p  c #A7A187",
"a  c #ADA185",
"s  c #ADA389",
"d  c #AFA98C",
"f  c #B1A286",
"g  c #B4A58B",
"h  c #B8A78C",
"j  c #B6A98D",
"k  c #B9AA8E",
"l  c #BFB18F",
"z  c #ACA492",
"x  c #B4A690",
"c  c #B6AB92",
"v  c #BBAD92",
"b  c #B6AF9B",
"n  c #BEAF99",
"m  c #B7B096",
"M  c #BEB195",
"N  c #BDB399",
"B  c #BFB99E",
"V  c #BEB4A3",
"C  c #BFB9A1",
"Z  c #C1AE94",
"A  c #C2B396",
"S  c #C6B896",
"D  c #C4B59A",
"F  c #C9B69C",
"G  c #C6B99D",
"H  c #CABB9D",
"J  c #C3B7A4",
"K  c #CAB5A0",
"L  c #C5BCA2",
"P  c #CCBDA2",
"I  c #C7BEAB",
"U  c #CBBEAA",
"Y  c #D0BEA3",
"T  c #CBBFB1",
"R  c #CEC09E",
"E  c #D0C19F",
"W  c #C7C0A6",
"Q  c #CEC1A4",
"!  c #C7C1A9",
"~  c #CDC4AA",
"^  c #CDC9AC",
"/  c #D2C3A5",
"(  c #D7C8A6",
")  c #D8C9A7",
"_  c #D4C5AA",
"`  c #D8C7A9",
"'  c #D6C9AC",
"]  c #DACBAD",
"[  c #DED1AE",
"{  c #CEC6B4",
"}  c #D4C6B2",
"|  c #D6CCB1",
" . c #DBCDB2",
".. c #D4CEB8",
"X. c #DFCFBA",
"o. c #D7D1B4",
"O. c #DAD1B3",
"+. c #DBD2B5",
"@. c #DAD3B6",
"#. c #DED0B5",
"$. c #DFD1B6",
"%. c #DCD3B6",
"&. c #DCD1B5",
"*. c #DBD4B7",
"=. c #DDD4B7",
"-. c #DED1B5",
";. c #D6D4BB",
":. c #DDD3B8",
">. c #DAD4BA",
",. c #DED5B8",
"<. c #DFD5BA",
"1. c #DCD5B8",
"2. c #DED4B9",
"3. c #DED8BA",
"4. c #E0D2AF",
"5. c #E4CEB6",
"6. c #E2CEB3",
"7. c #E1D1B7",
"8. c #E0D2B7",
"9. c #E0D2B5",
"0. c #E1D3B5",
"q. c #E6D9B6",
"w. c #E8D9B7",
"e. c #E1D3B8",
"r. c #E2D2B8",
"t. c #E0D7BA",
"y. c #E1D6BA",
"u. c #E4D6BB",
"i. c #E5D7BC",
"p. c #E3D5BA",
"a. c #EBD7BD",
"s. c #E1DBBB",
"d. c #E1D8BB",
"f. c #E2D9BE",
"g. c #E6D8BD",
"h. c #E5D9BF",
"j. c #E7D9BE",
"k. c #E5DABE",
"l. c #E2DDBF",
"z. c #E5DCBF",
"x. c #E5D9BD",
"c. c #E8DABF",
"v. c #E9DBBD",
"b. c #EEE1BF",
"n. c #DED7C5",
"m. c #E4D6C0",
"M. c #E4DDC0",
"N. c #E5DEC1",
"B. c #E2DCC4",
"V. c #E5DCC1",
"C. c #E9DBC0",
"Z. c #EADCC1",
"A. c #EBDDC2",
"S. c #EADFC3",
"D. c #E8DDC1",
"F. c #EDDDC3",
"G. c #EADDC2",
"H. c #E4DCCA",
"J. c #F1DBC3",
"K. c #F0DFC1",
"L. c #E7E0C3",
"P. c #E7E0C4",
"I. c #E6E1C3",
"U. c #E9E0C3",
"Y. c #EBE2C5",
"T. c #EAE3C6",
"R. c #EAE3C7",
"E. c #E8E1C4",
"W. c #ECE1C5",
"Q. c #EDE2C6",
"!. c #ECE2C5",
"~. c #E6E0CA",
"^. c #E9E2C8",
"/. c #EBE4C8",
"(. c #EDE4C9",
"). c #EEE9CB",
"_. c #F1E3C6",
"`. c #F2E7CB",
"'. c #F2E5CA",
"]. c #F2E9CC",
"[. c #F4E9CD",
"{. c #EAE2D0",
"}. c #EFE9D1",
"|. c #F5EBD2",
" X c #FBEDD3",
".X c #F4ECD9",
"XX c #FBF2D5",
/* pixels */
"~ ' +.L.l.~ W G B A G ' ..W m C o.n.>.P.f.Q  .<. .L W *.N.3.W O.K.5._ } C.7.P W ~ '  . ._ Q _ ' ' ^ U v } } r J Y } _ }  .| ' ' K v g 5 A /  . .p. .C.C.i.C.C.C.p. .<.P K G Z G ` J.",
"+.' *.*.W G Q j k m w G L m ^ ~ ^ | W W N N ' Y K D a N ' W m S Y Z G Z A L M M M G W Q D v m v m g j s e : . : 7 q A  ._ D P P L G y 5 L %.7. . . .i.i.p. . ._ } Y _ Q Q L Z h c } ",
"W '  .' _ _  .G G L v ~ W c ^ { g w 1 e 7 f H H v A m M v Q h.7.Y A D A G ' =.>.3.3.3.l.<.*.<.>.' L A c a f h s g f M H G v v v G A k k A H P G H U _ _ ' ' ` ~ Q _ ' '  .i.' c j A ",
"P k.z.<.D.D.Y.!.V.f. .L v m G G M m v A g e k S H D Q Q g Y C.Y K Y Z F _ O.z.l.I.T.I.I.T.T./.P.b.<.' ] ] ] ] ( / ( D k A v f y H P D _ 7._ P  . . .' _ ] y.].].].Y.<.+. ._ ' _ 7. .",
"~ z.D.y.d.e.k.k.h.<._ Q W G N c v / P k 8 8 8 k Z v Z D s M _ e f L F F _ | f.*.l.I.^./.I.I.T.I.n.T.d.y.e. .' _ ( P L G v h j c P P v L X.` L ' `  . . . .y.(.].(.D.%.y.| G J / ` 7.",
"' v.D.%.=.%.k.d.h.>._ G P Q D v v F h 5 8 Z 8 h u k F A y A _ g f A K F Q  .>.3.3.b.l.I.l.l.I.n.n.^.T.3.%.=. ._ ] _ Y P D c v F P P c f H ' / U Y  .j.j.<. .+.=.Q.Y.!.(. ._ / D  .j.",
"' Q.!.=.%.%.V.D.| U Q J P F v K Z F 8 f S H A A k A ` L f A Y j Z Z F F / -.3.L.I.I.I.T.T.I.I.3.;.3.b.T.c.7.%.7. .} Y P K A h D P _ f % D  .P _ } p.F.'.Y.V.D.T.].T.'.|.p._ P G F / ",
"W =.v.<.] Q |  .L G Q L P H F P A H Z k f k Y _ Y Y Y / c g _ F n F F Y _  .d.3.I.I.I.l.l.l.m.<.s.l.o.o.q.7.7.q.5.} _ P Y D n F ' / g < G | Q | 5. .C.(.`.(.T.].XXQ.i.r. . .P Z Z Y ",
"P  . .| Q Q P Q U Q P G H G D G G K f e 4 k / S H H A D e e P D D H L H /  .<.%.<.V.V.=.| d.+.<.l.b.x.d.| | 3.o. ._ Q U P D v Y _ ] A 5 / P Q _  . .i.C.V.Y.Y.Y.z.' ' V.] / S H 4.Y ",
"K  .' D H _ J L Q L W ~ J H F D P v v Z Z P P / Q A J D g G _ N F K Y K P ]  .<.V.f.=.O.| <.+.%.t.x.v.!.k.<.<.o. .` _ Q L Z n Q  . .H u D P Y _  .'  .F.y.y.Y.U.' N <.%.] F h k Y F ",
"v u. ._ G H P _ ~ L _ ~ H H G D G F L A v K _ ]  ./ / H k  . .K U Y `  . ._ _ %.<.<.d.d._ | <.y.z.U.!.Q.W.b.b.b.F.m.%.' G N P | 5.%.H v H P ' p._  . .i.%.%.V.D.%._ y.' / F v h D A ",
"D i.' _ Q P ' ' ~ ] ' G P U A K P K Z A v D _ `  .' Y L c _ r.' ' _  . .%.O.| O.-. .' '  .<.%.<.c.D.U.z.z.I.Y.I.S.S.l.o.W N ' f. . .c J ' D A c } u. .`  . . .h. .<.%.] / H v j Y Y ",
"D u. . . . . .|  ._ .._ G U / D H P D H F S ( ) _ P D G v _ m.i.5. .O.|  .!.].y._ / _ W |  .| <.y.h.h.+.3.B.P.).Y.~.~.;.^ W ' o.>.>.w x _ M y u Y  . .i.C. .7.C.f.<. . .i.' K _ ]  .",
"4 g P ' Q _ ' ' | | ' Q K P U H H Q _ / H S / ] _ L G H D P '  .%.|  .| O.z.f.| P A ' f.G.Y.m.o.' ' ....} ^ C ! ..^ ;.I 0 s ! d r t x N d j A Z F A L  .' _  ._ Q ' / P G v A } Y Z ",
"4 : y v A W Q G N N c v j g v v n y w e f 5 8 v c j A v v c x v G W ' ' ' Q m k c g D _ B x ! | B N G m b p t V b b z - = 9 0 9 o 9 L ~ N b D A v f h D H H Z 5 s j u g y g 7 4 4 : ",
"F  ._ /  .' ] ' U U N J K n K _ X.} Z n P / } _ P L _ P L n D P G 3.U.k.V. .G G U ' U ^ ~ 3 p L N L ~ C b z t V { V V V I I ..n.{..X~.;.;.| ' _ / ' ]  . .( /  .g j ' G D A j j g v ",
"F.C.u.C.F.j.C.'.m...'  .<._ J <.m.} _ | >. . .r. .' L Y _ L P Y | y.d. .%.q.e.] ( Y H / 3.3 w W W ^ ..;.n.I V { V { n.{.~.~.{.{./.N.N.I.3.3.e.e.[ w.[ [ i.p.p.C.D  .m.L F _ _ L '  .",
"u.p.7.u.k.k.G.C.Q  .k.y._ J g '  .D P P P } 7. . .` _ ' _ _ P _ ' %.%.| ] -.9.u.q.9.( G ' 7 2 J >.3.| ;...B ! { { {.}.P.).B.n.B.n.n.n.I.l.f.e.] 0.) [ [ P ' u.c./ _ r.P G  .i.p.p.c.",
"5.%.u.C.C.F.F.>.<.y.h. .W J w W _ v Q R A /  . . .' _ Y ' _ Y _ ' <.y.| ]  . . .] ) Q A ' B g ~ r.| | ^ L m W | >.b.3.3.s.b.Y.b.B.N.f.f.d.y.7. .[ ] | ( H P _  .D H  .' L p.!.7.p.i.",
" .p.i.F.F.C.C. .h.k.+.] _ _ 1 v _ D A k S / ` ] / _ } ' _ Y U  .h.k.p. .' '  . . .q.%.P L L N | } ' y...~ W ^ @.| ^ o.=.^ [ 3.o.<.h.N.C.z.=.0.q.[ [ R W Y _ L _ v G 7.' P p.c.' p.C.",
" .w.c.D.C.i.p. .=.W.D.k.C.<.& 7 Q v g x ~ ] _ _ Y P _ U _ K K  .p.] ' ' P /  . .r.a.%.Q P Q n | X.X.O.' ~ N ^ | ' _ 5.} Q ' ] e. .%.y.h.y.O. .7.@.( _ ' Q / _  .v P  .] /  .%. .p.i.",
"7.A.A.w.C.h.y.<.z.U.k.U.(.+.& 7 J n K _ %._ P P Y D F K P L A P P / / _ L /  . .r. ._ Q } _ s J  .] ' ~ R j G y._ P ` ` ^ ( _ ]  .%.<.<.e.7.7.7. .( ` _ P Q '  .v _  . .Q _ _ _ _ ] ",
"7.W.v.e.u.y.i.C.Y.U.U.Q.V.^ 2 G Q K ' p.<. .' P P K P Y _ K F K ` ]  . .` _ ]  .%. .] ' P v w F P P %.' B j m ] } _ _ _ H F / ` / _ _  .=.%.] _ ' Q S f A _ '  .v P p. .R H G A _ %.",
"q.v.a.c.c.u.c.(./.].Q.d.' W a L ' P  .7.<.w.u.7. ._ _ ' ] _ Y _ ) ( ) a.u._ /  .%.<.p.p.F n x A D G _ U B a M H A Y A v Z S Y H P H J / _ / H P G W D 7 g G |  .P _  . .F M A A ` A.",
"] 7. .u.'  .p. .m.' W G L G s ~ | F L ` 5.5.P '  .` } ` Y }  .} Y S ) 0.9./ A -.e.A.y.X._ x j n h f M _ L v H m u Z F D F F Z A H / H ' F h D F A h L Z G '  . .D J 5.%._ P ' P  .y.",
"'.C.C.D. .%.G.p._ U ~ O.' G v / } G n F ( / c D Y  ._ Y  .m.` Z Y ) ] ] ( ] 9.y.d.z.w. .Q 5 q N M A Q  ._ P P R F Y Q _ H Z g A R R / / H H S M Z Z _ _ Y ' _ r.j D C.%.P G _ G u.Y.",
"N P P v v D P Q k M k k v M j 4 6 f g Z Y E S H H k h K _ G h r f ( / / G v H P 7 8 s 2 e : 2 x f f s v k 5 a j P n g a & j H G l A F Z A / / H S H F Y F v c Z g g '  .' _ G x g G ",
"c U } D V L K c W ^ ~ G M L F u e k A S / ) ) / R S Q P 4 4 K U R / _  ._ D M D B G M j D L L ~ _ K N D v a s d L k j j 7 a G M k Z A D R R ( R H Z f L G x G G _ P / Q _ _ _ _ F e ",
" .S.'.S.|.|.'.m.W._.(.w.' W K H F K / E ( ) ] ) 4.w.] R M | [.'.A.u.D.A.p.i.C.C.3.z.Q.Q.!.(.z.d.a.-.q./ S Q R | 5. .p.w.v.D D _ 4.( S ( 4.) ) ) E A k f K p.i. . .<. ./ _ '  .i.F.m ",
"m.C.C.S.S.C.S.D.=.' / W Q _ D v v / ` / ( ) 4.q.0.[ O.q./ ' `.`.C.A.'.F. .<.S.S.f.C.(.).d.U.D.Q.e.) ( F R E S o.] 9.7.] v.A A  .) ) ` ) 0.4.E R 4.H A l  . .P G `  .' P '  .p.i.p.P ",
"h.y.%.V.m.k.Y.%.' W G A P F v v A U ` / E ( 0.4.q.[ ] [ _ -._.A.C.F.A._.f.k.C.<.+.h.!.`.D.D.U.D.v.[ R ] 4.4.) ) ) ` 0.b.a.h A 6.( ] 0.) [ ) S Z / F A Y 5.<.h.m. . . . . .%. .p.r.N ",
"' [.U.w.y.k.y.' P ' O.W G G K F D D } ` H ( 4.0.O.4.0.] A ' _.v.F.i.y.7.d.Q.D.Y.h.w.(.`.[.D.D.b.4.[ 0.4.) 4.4.) / ( R [ q.l l ' ) ) 4.[ 4.( A R H k H y.p.C.k.F.r.p.y. ._ 5.}  . .N ",
"' |.Q.i.<.f.U.' /  . ._ K _ ] D D P P ` R R [ 4.0.0.7.] A P !.w._.c.-.9.9.a.e. .>.m.P.'.(.(.V.f.] E ) ) R E ) ) [ E E ( [ l 8 ( 0.4.4.0.[ H E E H H 4.q.y.%.| %.=. .| J D ' P U ' G ",
"' Q.Q.`.D.w.d./ ` u. .( / / / / H  .` ( H H R [ q.a.e.7.'  .D.7.v.c.a. .( Q A ~ h.C.S.^.Y.f.%.y./ R Q ( E H E 4.4.4.b.) ( l S O.] 4.4.0.) S Z H E E ] 7.O.e.=.O.d. .Q / G P G Y  .G ",
"' T.`.!.d.z.z.] ` r.9._ / / / _  ._ ] ] R / ` ] ) ] ' -. ._ ] w._.v._.-.( H P %.y.y.D.F.h.k.y.] R F H ` H E ( 4.w.w.4.[ R g [ 3./ / ` ) E / Y / ` Q )  . .d.y.<. .| %. .A F _ ` 5.N ",
"o.Q.[.D.%.d.c.y.7. .] _ P / _ ] 9.5.9.4.4.4.[ ) [ ] ] 5.%./ / b.v.a.a.( ] -.7._.C.y.w.q.] %.u.` F k G S Z H ` 4.4.w.[ [ S e ' 3.( ( ) ( ) 4.4.) ] [  .( _ %. .| W ' 7.] v v ' 5./ m ",
"' =.d.k.u.7.-.q.7.] _ / _ ' ' _ ) 9.4.) [ [ 4.[ ) 0.w.a.p./ _ -.7.7.` H ] 6.%.u.0.q.u.9.e. .' ' H S S A R E ] 0.0.[ _ 7.' s G F.q.4.[ ) ) 4.4.[ 0.4.' H Q ~ W Q G G P L L D G ` u.P ",
"*.=.' %.k.5.] 7.] ] Q H / _ / Q H H / ` / H ` 4.0.q.-.k. .G  .] a.] / H H L ' _ H e._._.v.3.[ ' H S H S ) ) 4.) ) v.7.p.7.j P C.0.) ) 4.( H H Q / G G G H Q | %.| ~ Q J J v s A ' c ",
"y.!. .%.k.%.e.7.7.c.%.-. . .Q D L L H G _ Q _ C.u.6.] 7._ v y.=.-./ / H k v H P H ] W.Q.!.Q./.L.] E / _ ( 0.w.] [ b. ._ G w J D.-.-.0.a.] F G S v L Q J G %.(.|.n.;.3.^ G c k D G s ",
"7 L D / ' Q ] ` P L v g 7 e s 4 o O + . % q w e f 8 c G c g A j f k A k u 8 4 c M k M N G D G ~ k M f g f H D A a 7 w 2 3 x 4 s G G G W H m N M j j s e d d b I J B L B N a p a e a ",
"y y K U n v x L P G c h e e g L 4 + w 2   5 x g k v Y ' _ _ / A S S H l f k A A h k k k Z k Z S 4 $ 4 $ : e Z j c s e s g ' G N Q M c M J Q Q J D z g A s t 2 + z L N m c a a j v M ",
"m.C.F.C. .' _  .u. ._  . . .| ' P ` U I N U }  .c.k.i.7.5.u.v.v.w.' ' ] _ ' ( H Y ` 9._ Y Y E ( k 6 4 8 Z P Q N  .' G G v G R -.y.%.y.y.=.<.<.h.h.C.C.} | n.X.b {..XB.+.] ~ H %.k. .",
"A.'._._.A.p. . .y.] P J Q | ..~ P ..A v B _ '  .w.v.w.[ -.q.t.q.a.-.] ] Y ` ` Y ` ` ] ( H H E H S S u h Z P Q v M D h M G G / %.d.y.<. . .O. .h.(.S.D.<.<.S.} w n.<.' W / / F 9.!.D.",
"q._.b.v.c.i.m.r.e.7._ N v K _ U Q Q N c q D _  .[ e.e.4.0.q.4.q.e.c.u. .Y  . .` 6.) 4./ S H E E E Y H ( 4 s G g M F S A H R ` 9.-.%.d.y.y.%. .<.y.} %.H.h.S.Q s y.' Q _ ] q.]  .v.w.",
"4.q.b.w.0.0.e.e. .` Y D v A U P G W L L 7 s ~ ' [ [ 4.4.q.q.q.q.w.k.j.i.` }  .r.w.4.q.E S ( ( H F Y H w.u 8 v j / ( H / ( E ] q.-.] =.%.h.y.y.v.C. .h.k.|  .U J i. ._ ] q.e.` v Z ) ",
"[ ) t.a.0.q.[ [ ] _ P K v M H _ G P ^ ^ N M / [ [ ] [ 0.[ 4.q.q.c.y.C.A.7. .i.F.w.4.) H H ( H S Y Y Z E e u H Y H G F Q / / / / ' _ (  .7.y.y.7.V.Y.S.' | Q H _ %. .' ] 9.q.7.S e A ",
"[ ' 7.u.0.t.0.-.] ` _ / D D m G ~ W ..' | ' / 9.] / ( [ [ O.q.w.D.k.D.V.`.F.!.C.a.-.] H H E Y / R F Y Y < u _ _ D F H / / _ ` ( ' ' ' ] '  .c.c.U.|.C.L '  .P _ p. .' / [ b._.u.( ' ",
"| ' <.w.q.e.0.[  . .] ' G L j j m L ^ ~ ~ D _ P Q H Q [ [ q.x.b.S.Y.S.h.'.k.D.F.q.q.w./ ( ) / H W K H Y g h F F H ~ P ' _ _ ' _ ' ] ]  .]  .F.%.z.U.| ' p.' j N C.i.7.] 7.a.y.%.7.u.",
"( ( [ ] 7.q.q.] e.9.` 0.( S g e p B W L G B R H Q P ' -.] %.u.a.Y.T./.l.3.U.k.<.] q.0.) ) ) H H _ / ] A x F Z Z A L K H H / ( H ] 9.` ` ] ] c.w.C. .U '  .' s g r.%.p.7.w.0.] `  .u.",
"~ -.-.-.w.7.%.7. .9. .` G D v v ~ Q ~ L c j F ~ [ ] ] -.7.' ` c.]./.).T.+.| | _ ` [ 0.-.( E H R / ' ' x f G Z v P Y _ _ _ H G ( 6.7.`  ./ P k.C.S.| Q ^ +.m._ v ' 7.u.<.7.7. .]  . .",
"p.i.%. .c.i.u.u./ _ 9._ P ' G U L v c G 7 @ B =.p.i.k.w.' P p.S.I./.).P.' m G %.w.' O.e.` H F H '  .7.G j K _ _  .` 5.u. .] ] / } ' Y Q Q P  .' %.| %.m.C.S._ G i.i.i.i.c.r.w. .u.i.",
"7.y.7.] _ P L D P K g k v v j 7 < q w c c 2 7 ~ C.i.p.<. .X.F.i.3.b.N.P.P.^ L W Q W _ ' Q A P _ ] _ K e * u _  ._ } i. .U H U H Z G A k G _ Q | P U +.Y.m.Q u e L } r.A.F.p.r.5.u.i.",
"v L Q v y 4 : % e j 4 1 e k F j x U Z s G | P P  . .P _ <. .r.m.*.+.| C N | ;.m D J Q G L D Y ] Q / G j j A K ] _ } _ P * O H P 7 e e : 8 k D ] _ / e.=.M a y v < c n n P H G L c g ",
"L _ Q K _ | K U _ |  .H A P P _ _ K n J ' ' =.r. .X.p.y.u. .p.C.O.=...p ; ! P.3.%._ _  .%.' _  .] 7.] ]  .p.5. .] } ` C.g s  XC./ Q G A H H ( ) 5.%.D.`.Y.(.F.m.C.h.' _ X. .<.' F G ",
"'.j.K / y.<.' '  .| _ ( ( H F / P G G L | ] ( 9. .} 6. . ._ }  .6. .%.c , ^ o.' _ G W ] Y Y _ ] -.]  .` Y _ ` _ ` _ ' ' L ' S.p.z.] W F / ` 9.q.k.A.U.y.V.(.G.H.C. .p.G._.`.[.A.u.A.",
"j._ c _ 5.'  . .] _ ( ' ` R S H  .' G R ' _ ] 0.p.| _ Q  .P H _ ` _  .v ; ^ *.' F G / H f H 4.] ] ]  ._ K L Y } / ` / / P Q <.X.R H / H ` q.) w.c.a.W.z.f.V.G.S.| X.<.| C.K.K._._.A.",
"' G g Q 5.i.D. .H H [ [ ] ] R R  .5./ _ ] 9. .] ] 9.9.` H H G S F R / P f ' %./ H H ) Y H / 6._ ` ' ( ' Q R / / _ _ / _ / Y Y P F H R ( [ 4.9.4.u.c.!.f.z.).l.f.<.+.d.' '  . .i.p.7.",
" .N v w.Y.j.%._ ( / R ` ] ( | (  . .] 7.w.a.9.' ] 9.`  .( F D A S S P A k D D D H / ) ` ] 9.r.q.e.-.7. ./ ' ` _ ( _ / K ' L c K P ( E ) 4.[ ] 6.u.D.U.z.z.f.' ' <.y.d.+.l.y. .` Y ' ",
" .D F v.k. .] 7.d.e.-.] O.[ | ) 5. . .p.%.7. .] ] ] ' / / / H F M M / M s H Q A F ] [ 9.] 6.q.A.W.v.i.%. .' '  .6.' _ F _ _ D P D _ ] ] ] 9.0.q.v._.Y.z.d. ._ _ D.V.V.z.(.i.p. ._ _ ",
"_ / _ c.q. .q.A.v.c.v.y.y.e.' ' _  .p.p.' ] ` ] ] ] ] _ / _ P H S h H P 8 / / k A ( ) O.] u.c.W._.A.y. . ._ _  ./ ] v._ Y P A K K ` ` _ ` ' ] F.c.`._.U.l.<.<.%.C.C.f.z.C. . . .5. .",
"P  .] q.7.e.a.u.a.a.i.C.A.i. .' /  .r. .]  ._ /  .] Q _ P A / / R Q / F 7 ] A f h F ] a.] e.v.b.A.w.D.C.r.p. ._ ]  ._ S Y G f F Y } / / ` H Y F.C.'.F.z.<.<.f.f.z.v.f.3.C. ._ p.r. .",
"' u.] p.u.y.w.=.x.c.u.7.y.C. . .'  .p.| _  ./ P 6.] / ( H M Y _ A _ ] A 7 _ Z j h S ) v.9.' u.v.v.A.A.'.m._ L Y r.} Z A Y G g P  ._ / ` _ /  .y.A.A.k.y.=.+.w.V.z.z.*. .C.| F '  .` ",
" .7.' u.w.y.0.0.q.w.] L _ 7. .X.} ] ' ' _  ._ S k v Y P ( ( G R S R  .L v K A H E ( ( -.e.( -.v.a.b.A._.'. .P p.Y ` | _ A h h H ] / H / P ` a.k.%.7.<.<.y.d.k.k.y.k.O.|  .Y n A k h ",
"7.' H _ ]  .O.e.e.=.D P  ._ ' |  .' ' ' Q _ Q v A H ` ' 9.` W ] ] ' ] A v P D / ] 7.] ' ] H E 0._._.'.[.'.C. .} Y  .5.( h S S S %.` F S / D F  .7.u.d.=.d.D.D.k.y.y.+...D v G c k g ",
"| J J | | X.<. .' ' _  .r._ _ ' _ L F `  . .6. .y.7.H k v v ' p.y. . .j j N g N / y.y e k c Z D _ H G J / Q J G v v D ' P / ' / Z g L v v s j ' 9.a.5.] 7.w.[ [ V.h.%.' J e 4 M P H ",
"x U D U | } U _ P / D A  ._ _  ._ G v P _ _ G K L j * . f g k e j j D y u g > : > > O 7 s < 4 c g e 5 e A D c v v Q _ J v v n j 6 q c A e 5 5 % g d 7 f D v 8 j D M A c M v % * e 4 ",
"q v d c N D N c D F v j D v A _ Q H P } L L v c k c k 7 g j j j k M P A D A y 4 e v / P A G D G G L K /  .L A _ p.i.y.G v j g N h u y Q ^ D v s 3 d d N G l a k j : < 5 e M 8 % @ $ ",
"_ v g Q }  .y.' L H ' } } P L L Q _ ' _ v _ / A  .7.C. .D _  .p./ Q G M A G F S D H u. .Q  .p.D.' _ _  .r. .Y  . .] u.7.p./ A P h v j J ^.m.<.C.W ^ o.| ' ' H A _ g g ] G v k k D / ",
"9.D c /  .'  .` P P  .' _  . .Y  ._ G P D H M j ] p.A.} c ' ` ' ' / A S W ( ( / _ / q.%._ _ ] 5. .' ' -. .] ] ' ] ] 7.%.p. .Q P n u e D | _ | Q _ J G G A S D A G v j ] J A G D Q p.",
" ./ v H  . ._ _ Y U 5. ._ }  . .5.L K u. .H A g v  .K. .A _ } ' ' Q A H ` ] -.` ] 9.q.] H /  .u.p. .w.a.` ` ] ( ( 7.7.]  . .' K P 7 % P _ U | Q P K G v v k M S v g v p. .P D A L p.",
"q.Z 8 D 7. .Y P Y P Y  . .` ` 6.] /  .7._ ` ] A g c L Y v L  .' G H A / ' ( _ ' ) ( ] 0.( H F  .'.j.q.] ` ) 9.R ( ] %.5.} ` / G Y h 7 L D A J Y A F D v M F H F c j Y p. ._ M v F ] ",
"S h f Z ] X._ K _ U Y ` 6.} }  . .Y ] / _ u.a.' Z c v ' g A _  .( -.'  ._ H / ] ) ` ] a. .] L K 6.r.0.] / E ) H ` 9.7.5.` _ P K K Z n P K G A U A k v k A / 6.` F e P h. . ._ k g k ",
"h A k M P ` / H  .Y  .} 5.} } X.` K / L ] w.] H Z D  .P D _ '  .p.7.] ] ' '  .u.u.q.c.v.a._.] G 9._ 9.] E S S ( ) q.q.r.} K P P F D k L R B D D G Z D Z D Y a.r.P j H %.-.q.] H v f ",
"H S k k F / / L Y  .` 6.a. . .6._ F / 6.` A k S H Q  .A A p._ P w.u.' H Q -.y.D.c.K.A.w.0.v./ H ( H 6.] E H S ) 4.9. . .Y F H D K Z 6 F W G G P D _ _ K G _ } Y P G /  ._ ' / H F / ",
"/ A h f k D D H P `  .5. .`  ._ P L F H H A S S H S Q c s X.Q  .w.%.P H ' p.D.w.v.c.-./ Q ( F / / ] a.] F R H E ` ] ` Y D D P Y P j e _ R B / W Y  .F P Y / P Q _ J P -.' Q H H ] q.",
"S k h k h v v D _ ` } u.}  . ._ Y Y L H F A A A s h _ H 7  . .X.y._ ( ` ] w.A.a.v.] H H / _ _ ] e.e.w.] ( / H / ( ` / L D D K A c s a W G G G G G A v P F v D Q 7._ ' -.Q F _ %.e.] ",
"k f h k k k g v Y X. . ._ _ P Y _ U K G K A g y L Y  .P y 7.u./ ' _ 9.] / ' ] ' Z f 8 Z P ] a.q.-.-.7.` H P / Y D K / / G A F c 8 s p d N M m ( P j m G A k M G P P  . .L P ' 5. ./ ",
"G A v v v A D U _ } _  . . .P '  .Y P v F P v v _  ._ c f ' k._ / / Q Q H D S m f 8 8 A F v H ' / ( _ D h F _ Y / ( H M a g L / k f k a d p d B ~ v k m ~ A h G ' P _ ' ' } Y | ' / ",
"-._ Q G L  .p.5.u.J u x v n A P D y w 7 n g q r 4 5 4 y 8 % 5 D H A S G H / G / H F A A A 8 g H H P / ` / D k c A D k h g f m J G s j a d k m m g k g l / N a G U G G _ _ _ _  .'  .",
"/ A j k A P _ N K D x n x q u G 8 < e e x q q i x x j v L j A P P '  .' H D S H A ( / F ( Z k h v ` ]  .7.D j Y v P Q ( ( A v A G G G N H Q R G N M m Q R G S G P A v G A A _ _ / } ",
"P y 7 f k k Z c : ; D _ _ U J Q F H F P ' P C.U P F M k P ' ] P A ' ( -.] W  ._ ' ] A D H P S v G F /  .K n _ X.L _ _ _  ._ U G H H S G H Z H E E H S R ` P G _  .' P L /  .%. . . .",
"A e e g e y j f % O w / J D / P / L K F y. ._ G ] Q A H ] / H H G S ( ( ( ] _ (  .7.H A L ] p. .[ Q Q / D A A A /  .' ' ' ] _ P P ( P H E S H H S A S R ` ] }  .]  .' _ %.7.r.u.5.%.",
"] L G G v g y 4 < v c D h H  ._ ' P D M -.w.H / -.q.' _  ._ / Q / Q E H Q ] ] %.e.-.Q /  .p.C.F.] G F [ ' A k S / 5.i.i. .' _ P H ( / Y ( H H H H S R E ] -.p.p.p. .Y L P H P -._ _ ",
"]  ._ P F j e 6 f h g H v H ` ` / Q A M Q  ._ _ ' ] ] ' / S P Q R ] H H ] ) 9.7.' / Q  .i.i.k.i.' ] / 7.] M j R ] '  .p.p. .' P H Y Y ( ) S H H ( E / ) -.0.p.r.u.7._ F F D P 9.' Q ",
"Y / Y K Y Z g g f u k F A Y _ Y S W H G G ] 7.( Q / / / D M Q R / ` ( ) q.q.` / / ] ] ]  .C.F. .]  ._ y.q.H k R  .]  .%. .7. .P Y A S ( ( A H E E ( ( 4.q.6.6.y.` _ H A F / ` 7.c._ ",
"` P / / _ U n u h > u D / / P _ ' ( Q G H [ 9./ Q / _ P k h H H E ( ( ] ) ` ` / ' -.7.'  .C.'.i._ A _ 7.u._ a H ] -.k.7. . . .Q S k A P Y H ( E / ) [ ] q.0.] w. .F A A H / ' -.-._ ",
"` / ' / _ Y Z v v < u _  .7._ P ' ' ' Q Q _ ]  .-.] ] ` H h M / 4.0.0.4.( H ] ] ] ]  .<.C.D.F.C._ L ' _ ]  .g  .v.c.i. .|  .} P S A H / S A H H ( ) ) ) ] 9.9.c.c.F A G H F S / _ ` ",
"7.] ` P ` ' h u e v A _  .' P ' *.d.3.3.-.H  .i.9.c.-./ / H H ] w.w.w.4.( E / ] v.%.7.w.F.k.y. . .P L A _ _ e c._.u.y.7. .] _ P / Y _ / S Z H Y [ E ( ) 4.4.] r.u./ F A M A S Q 9.] ",
"w.] -.) q.] g f s M P /  .Y A ' 1.b.T.O.' / ] e.v.a.] ' ] q.e.v._.q.) ) 0.` ( ] ] e.7.7.%.%._  .p._ D c N D w <.Y.<.' | ] _ Q _ ( Y A A A S ` ` ) ] [ ` ( (  .0.u.] P D F S Z Q ] a.",
"7. .[ v.u./ F v k A M ] _ U G _ o.@.q.e.] / ` 7.a.9.( ] a.W.w.W.b.0.0.q.a.4.` ( ' -.a. .p.'  .F.5._ v e G Q w W _ ' ' ' _ _ _ _ / / D f h H ] ] ) ] 4.] / /  .e.6.] / _ / G S v S v."
};
